<?xml version="1.0" encoding="UTF-8" standalone="no"?>
<!-- Created with Inkscape (http://www.inkscape.org/) -->
<svg xmlns:dc="http://purl.org/dc/elements/1.1/" xmlns:cc="http://creativecommons.org/ns#" xmlns:rdf="http://www.w3.org/1999/02/22-rdf-syntax-ns#" xmlns:svg="http://www.w3.org/2000/svg" xmlns="http://www.w3.org/2000/svg" xmlns:sodipodi="http://sodipodi.sourceforge.net/DTD/sodipodi-0.dtd" xmlns:inkscape="http://www.inkscape.org/namespaces/inkscape" id="svg2" version="1.1" inkscape:version="0.92.4 (5da689c313, 2019-01-14)" xml:space="preserve" width="346.77838" height="50.73613" viewBox="0 0 346.77839 50.73613" sodipodi:docname="cneuromod_logo.svg"><metadata id="metadata8"><rdf:RDF><cc:Work rdf:about=""><dc:format>image/svg+xml</dc:format><dc:type rdf:resource="http://purl.org/dc/dcmitype/StillImage"/><dc:title/></cc:Work></rdf:RDF></metadata><defs id="defs6"><clipPath clipPathUnits="userSpaceOnUse" id="clipPath18"><path d="M 0,216 H 360 V 0 H 0 Z" id="path20" inkscape:connector-curvature="0"/></clipPath></defs><sodipodi:namedview pagecolor="#ffffff" bordercolor="#666666" borderopacity="1" objecttolerance="10" gridtolerance="10" guidetolerance="10" inkscape:pageopacity="0" inkscape:pageshadow="2" inkscape:window-width="1850" inkscape:window-height="1016" id="namedview4" showgrid="false" inkscape:zoom="3.7891635" inkscape:cx="173.38919" inkscape:cy="39.207307" inkscape:window-x="70" inkscape:window-y="27" inkscape:window-maximized="1" inkscape:current-layer="g10" fit-margin-top="0" fit-margin-left="0" fit-margin-right="0" fit-margin-bottom="0"/><g id="g10" inkscape:groupmode="layer" inkscape:label="Logo Vector CMYK - Ai" transform="matrix(1.25,0,0,-1.25,-91.796865,160.68796)"><path inkscape:connector-curvature="0" id="path24" style="fill:#36ad5d;fill-opacity:1;fill-rule:evenodd;stroke:none;stroke-width:1.51802325" d="m 315.04702,102.90217 c 0.60257,0 1.2295,0.14918 1.75258,0.6237 0.42949,0.39184 0.80385,0.89151 1.0795,1.52959 0.26282,0.60753 0.44103,1.27077 0.53333,1.98434 0.0846,0.65606 0.14231,1.33009 0.14231,2.00232 0,0.66865 -0.0577,1.34446 -0.14231,2.00052 -0.0923,0.71357 -0.27051,1.37682 -0.53333,1.98434 -0.27565,0.63808 -0.65001,1.13777 -1.0795,1.5278 -0.52308,0.4781 -1.15001,0.62549 -1.75258,0.62549 H 302.1533 c -0.60001,0 -1.24617,-0.14019 -1.76797,-0.62549 -0.42308,-0.39364 -0.78975,-0.89512 -1.06411,-1.5278 -0.26282,-0.60752 -0.43847,-1.27077 -0.53334,-1.98614 -0.0846,-0.65426 -0.14103,-1.33007 -0.14103,-1.99872 0,-0.67223 0.0564,-1.34626 0.14103,-2.00232 0.0949,-0.71177 0.27052,-1.37681 0.53334,-1.98434 0.27436,-0.63268 0.64103,-1.13416 1.06411,-1.52959 0.5218,-0.4853 1.16796,-0.6237 1.76797,-0.6237 z m 6.61032,6.13995 c 0,-1.34267 -0.14231,-2.66376 -0.40129,-3.94531 -0.26282,-1.29594 -0.65257,-2.51099 -1.17565,-3.611 -0.50898,-1.06946 -1.13206,-1.964568 -1.86925,-2.661958 -0.76026,-0.715367 -1.6013,-1.037113 -2.49361,-1.037113 h -14.55656 c -0.85642,0.06654 -1.65258,0.436773 -2.36413,1.168323 -0.69616,0.71357 -1.28078,1.608678 -1.75642,2.661958 -0.49488,1.09103 -0.86027,2.28991 -1.11027,3.55887 -0.24744,1.25639 -0.3859,2.55233 -0.3859,3.86623 0,1.34087 0.14231,2.66196 0.40257,3.94351 0.26282,1.29594 0.65128,2.51099 1.17437,3.61101 0.50769,1.06946 1.13078,1.96456 1.87053,2.66196 0.75898,0.71537 1.60001,1.0371 2.49233,1.0371 h 14.55527 c 0.85642,-0.0665 1.65258,-0.43677 2.36413,-1.16831 0.69616,-0.71358 1.28078,-1.61048 1.75771,-2.66197 0.49488,-1.09102 0.86026,-2.28989 1.10898,-3.55887 0.24873,-1.25639 0.38719,-2.55232 0.38719,-3.86443 m -34.50676,9.15601 c 0.29231,0.62189 0.65129,1.13955 1.08719,1.5224 0.4436,0.39004 0.92565,0.57517 1.4372,0.57517 0.83975,0 1.5436,-0.45654 2.06284,-1.47207 0.52821,-1.02992 0.74872,-2.24137 0.74872,-3.5409 v -14.93828 c 0,-0.695588 -0.15,-1.304908 -0.46538,-1.809988 -0.3077,-0.494285 -0.68463,-0.747723 -1.13335,-0.747723 -0.44744,0 -0.82565,0.253438 -1.13463,0.747723 -0.3141,0.50508 -0.4641,1.1144 -0.4641,1.809988 v 11.15294 c 0,0.22466 -0.003,1.85672 -0.0885,1.99512 -0.1282,-0.0449 -0.75257,-1.17551 -0.84616,-1.34446 l -7.02186,-12.790368 c -0.2859,-0.52125 -0.63334,-0.91849 -1.04617,-1.17911 -0.42564,-0.269601 -0.87436,-0.391833 -1.33463,-0.391833 -0.46026,0 -0.90898,0.12218 -1.33334,0.391833 -0.41411,0.26062 -0.76155,0.65786 -1.04873,1.17911 l -7.02058,12.792158 c -0.0897,0.16536 -0.7077,1.32469 -0.82565,1.34985 -0.10641,-0.14558 -0.10898,-1.77764 -0.10898,-2.0023 v -11.15294 c 0,-0.697388 -0.15,-1.304908 -0.46539,-1.809988 -0.30769,-0.494285 -0.6859,-0.747723 -1.13334,-0.747723 -0.44744,0 -0.82565,0.253438 -1.13463,0.747723 -0.3141,0.50508 -0.46411,1.1144 -0.46411,1.809988 v 14.93828 c 0,1.29953 0.21924,2.51098 0.74873,3.5409 0.51795,1.01553 1.22181,1.47207 2.06156,1.47207 0.51154,0 0.98591,-0.20131 1.41027,-0.63089 0.41795,-0.42418 0.79488,-0.92925 1.13206,-1.50263 l 7.33857,-13.39969 c 0.11795,-0.19233 0.25385,-0.36488 0.38974,-0.52664 0.13334,-0.15637 0.28462,-0.25883 0.45385,-0.25883 0.17052,0 0.3218,0.10243 0.45386,0.25883 0.13718,0.16176 0.27051,0.33431 0.38846,0.52305 l 7.32828,13.43923 z m 40.76195,-15.29596 h 16.33606 c 0.60257,0 1.2295,0.14918 1.75386,0.6237 0.42821,0.39184 0.80257,0.89151 1.0795,1.52959 0.26154,0.60753 0.43975,1.27077 0.53206,1.98434 0.0872,0.65606 0.14359,1.33009 0.14359,2.00232 0,0.66865 -0.0564,1.34446 -0.14359,2.00052 -0.0923,0.71357 -0.27052,1.37682 -0.53206,1.98434 -0.27693,0.63808 -0.65129,1.13777 -1.0795,1.5278 -0.52436,0.4781 -1.15129,0.62549 -1.75386,0.62549 h -17.9348 c -0.44872,0 -0.82564,0.25523 -1.13462,0.74774 -0.31539,0.50507 -0.46411,1.11438 -0.46411,1.80998 0,0.69561 0.14872,1.30492 0.46411,1.80999 0.30898,0.49429 0.6859,0.74772 1.13462,0.74772 h 18.6066 c 0.89103,0 1.73207,-0.32173 2.49233,-1.0371 0.73719,-0.6974 1.36155,-1.5925 1.87053,-2.66196 0.5218,-1.10002 0.91155,-2.31507 1.17437,-3.61101 0.25898,-1.28155 0.40257,-2.60264 0.40257,-3.94351 0,-1.3139 -0.13974,-2.60984 -0.3859,-3.86623 -0.25128,-1.26896 -0.61667,-2.46784 -1.11027,-3.55887 -0.47564,-1.05328 -1.06283,-1.948388 -1.75771,-2.661958 -0.71154,-0.73155 -1.5077,-1.10181 -2.36669,-1.168323 h -18.92583 c -0.44872,0 -0.82564,0.253438 -1.13462,0.747723 -0.31539,0.50508 -0.46411,1.1144 -0.46411,1.809988 v 8.69767 c 0,0.69559 0.14872,1.30313 0.46411,1.8082 0.30898,0.49428 0.6859,0.74952 1.13462,0.74952 0.44745,0 0.82565,-0.25524 1.13335,-0.74952 0.31539,-0.50507 0.46539,-1.11261 0.46539,-1.8082 z"/><path inkscape:connector-curvature="0" id="path28" style="fill:#36ad5d;fill-opacity:1;fill-rule:evenodd;stroke:none;stroke-width:1.51802325" d="m 241.08795,103.52623 c 0.52051,-0.4853 1.16796,-0.6237 1.76796,-0.6237 h 12.89372 c 0.60129,0 1.2295,0.14739 1.75258,0.6237 0.42949,0.39184 0.80386,0.89151 1.08078,1.52959 0.26283,0.60574 0.43847,1.27077 0.53206,1.98434 0.0859,0.65606 0.14231,1.33009 0.14231,2.00052 0,0.67043 -0.0564,1.34446 -0.14231,2.00052 -0.0936,0.71537 -0.26923,1.37861 -0.53206,1.98614 -0.27692,0.63808 -0.65129,1.13596 -1.08078,1.52779 -0.52308,0.47632 -1.15129,0.62551 -1.75258,0.62551 h -12.89372 c -0.6,0 -1.24745,-0.14021 -1.76796,-0.62551 -0.42308,-0.39363 -0.78976,-0.89511 -1.06412,-1.52779 -0.26282,-0.60753 -0.43974,-1.27077 -0.53205,-1.98614 -0.0859,-0.65606 -0.14231,-1.33009 -0.14231,-2.00052 0,-0.67043 0.0564,-1.34446 0.14231,-2.00052 0.0923,-0.71357 0.26923,-1.3786 0.53205,-1.98434 0.27436,-0.63268 0.64104,-1.13416 1.06412,-1.52959 m -12.18218,2.95854 c 0.53334,-0.54282 1.05771,-1.10721 1.57566,-1.68418 0.6218,-0.6956 1.2295,-1.42354 1.81925,-2.17666 0.23846,-0.27499 0.44488,-0.59854 0.62052,-0.967 0.18462,-0.39004 0.26795,-0.834 0.26795,-1.31391 0,-0.693798 -0.15,-1.303128 -0.46411,-1.808198 -0.30897,-0.494286 -0.68718,-0.747724 -1.13462,-0.747724 -0.43078,0 -0.81027,0.319939 -1.12694,0.736944 -0.87437,1.02633 -1.76668,2.013098 -2.67695,2.963928 -0.91026,0.94903 -1.86156,1.801 -2.84874,2.55052 -0.98207,0.74592 -2.009,1.34267 -3.0667,1.78303 -1.07822,0.44935 -2.18592,0.66144 -3.30132,0.66144 l -6.34365,10e-4 c -0.26923,-0.0665 -0.48334,-0.26422 -0.65898,-0.58057 -0.19487,-0.3451 -0.2718,-0.76031 -0.2718,-1.21145 v -4.34945 c 0,-0.700978 -0.15769,-1.308508 -0.48077,-1.809978 -0.3077,-0.474514 -0.67821,-0.745927 -1.11796,-0.745927 -0.44744,0 -0.82565,0.253438 -1.13335,0.747727 -0.31538,0.50507 -0.46539,1.11439 -0.46539,1.808178 v 4.91233 c 0,0.85018 0.10001,1.67878 0.3077,2.46784 0.19616,0.74593 0.46795,1.43434 0.82565,2.02568 0.35128,0.57877 0.76539,1.02992 1.23591,1.35525 0.49231,0.3415 1.01796,0.49608 1.55899,0.49608 h 16.91427 c 0.31282,0 0.57565,0.17974 0.80001,0.50688 0.23846,0.34869 0.34615,0.78007 0.34615,1.28334 0,0.49249 -0.11923,0.9077 -0.34743,1.2564 -0.22052,0.33971 -0.48334,0.53382 -0.79873,0.53382 h -19.24378 c -0.44744,0 -0.82565,0.25344 -1.13335,0.74773 -0.31538,0.50507 -0.46539,1.11438 -0.46539,1.80999 0,0.6956 0.15001,1.30491 0.46539,1.81 0.3077,0.49249 0.68591,0.74772 1.13335,0.74772 h 19.11686 c 0.59231,0 1.16411,-0.17616 1.70386,-0.54642 0.52308,-0.35949 0.98975,-0.85377 1.39232,-1.47927 0.40513,-0.63089 0.71667,-1.36604 0.93975,-2.18025 0.23462,-0.86097 0.33975,-1.77045 0.33975,-2.69972 0,-0.93106 -0.10513,-1.84054 -0.33975,-2.6997 -0.22308,-0.81603 -0.53462,-1.54937 -0.93975,-2.18206 -0.40257,-0.6255 -0.86924,-1.11799 -1.39232,-1.47928 -0.51283,-0.35049 -1.05129,-0.52663 -1.61156,-0.5446 m -46.78123,2.55592 c 0,-0.67044 0.0577,-1.34446 0.14359,-2.00052 0.0923,-0.71357 0.26923,-1.37862 0.53206,-1.98435 0.27436,-0.63268 0.64103,-1.13417 1.06539,-1.52958 0.51924,-0.48532 1.16668,-0.62371 1.76669,-0.62371 h 12.70269 c 0.60128,0 1.2295,0.14738 1.75258,0.62371 0.42821,0.39183 0.80257,0.89151 1.0795,1.52958 0.26282,0.60573 0.43974,1.27078 0.53205,1.98435 0.0872,0.65606 0.14359,1.33008 0.14359,2.00052 v 8.64553 c 0,0.6974 0.15001,1.30493 0.46411,1.81179 0.30898,0.49249 0.68591,0.74773 1.13463,0.74773 0.44744,0 0.82565,-0.25524 1.13462,-0.74773 0.31411,-0.50686 0.46411,-1.11439 0.46411,-1.81179 v -8.64553 c 0,-1.34087 -0.14231,-2.66198 -0.40128,-3.94353 -0.26283,-1.29593 -0.65258,-2.51097 -1.17566,-3.61098 -0.50898,-1.06946 -1.13078,-1.966378 -1.87053,-2.661978 -0.7577,-0.715363 -1.60001,-1.037097 -2.49233,-1.037097 h -14.55656 c -0.85513,0.06654 -1.65258,0.436777 -2.36284,1.168317 -0.69616,0.71357 -1.28206,1.608678 -1.75771,2.661958 -0.49488,1.08923 -0.86027,2.2881 -1.11027,3.55708 -0.24744,1.25818 -0.3859,2.55411 -0.3859,3.86623 v 8.64553 c 0,0.6974 0.15,1.30493 0.46539,1.81179 0.3077,0.49249 0.6859,0.74773 1.13463,0.74773 0.44616,0 0.82565,-0.25524 1.13206,-0.74773 0.31667,-0.50686 0.46539,-1.11439 0.46539,-1.81179 z m -28.88234,-2.55772 v -2.40314 c 0,-0.33072 0.0923,-0.59854 0.25,-0.82142 0.1859,-0.26241 0.42308,-0.35588 0.67309,-0.35588 h 20.10532 c 0.44744,0 0.82694,-0.25524 1.13463,-0.74952 0.31411,-0.50328 0.46411,-1.11439 0.46411,-1.81 0,-0.693788 -0.15,-1.303108 -0.46411,-1.808178 -0.30769,-0.494289 -0.68719,-0.747727 -1.13463,-0.747727 h -20.26558 c -0.49872,0 -0.9795,0.179745 -1.43207,0.494287 -0.48077,0.33252 -0.90257,0.79625 -1.26539,1.37862 -0.38719,0.620098 -0.68334,1.344458 -0.90642,2.126318 -0.25385,0.88792 -0.35642,1.84055 -0.35642,2.80397 v 4.60495 c 0,0.70999 0.0949,1.52601 0.52565,1.92864 0.43462,0.40441 1.08719,0.4763 1.58335,0.4763 h 21.41431 c 0.44873,0 0.82693,-0.25522 1.13463,-0.74952 0.31539,-0.50507 0.46539,-1.11259 0.46539,-1.80998 0,-0.6938 -0.15,-1.30492 -0.46539,-1.8082 -0.3077,-0.49429 -0.6859,-0.74952 -1.13463,-0.74952 z m -3.19747,11.25538 c 0,0.6956 0.15,1.30491 0.46539,1.81 0.3077,0.49249 0.68591,0.74772 1.13335,0.74772 h 22.62714 c 0.44744,0 0.82694,-0.25523 1.13463,-0.74772 0.31411,-0.50509 0.46411,-1.1144 0.46411,-1.81 0,-0.69561 -0.14872,-1.30492 -0.46411,-1.80999 -0.30769,-0.49429 -0.68719,-0.74773 -1.13463,-0.74773 h -22.62714 c -0.44744,0 -0.82565,0.25344 -1.13335,0.74773 -0.31539,0.50507 -0.46539,1.11438 -0.46539,1.80999 m -6.25647,0 c 0,0.6956 0.15128,1.30491 0.46539,1.81 0.30769,0.49249 0.68719,0.74772 1.13463,0.74772 0.44744,0 0.82564,-0.25523 1.13334,-0.74772 0.31539,-0.50509 0.46539,-1.1144 0.46539,-1.81 v -14.88615 c 0,-1.37502 -0.27821,-2.59366 -0.89616,-3.600208 -0.60257,-0.98498 -1.3513,-1.464887 -2.23464,-1.464887 -0.30513,0 -0.60642,0.07013 -0.89873,0.208502 -0.28205,0.134809 -0.55129,0.323525 -0.79744,0.573365 l -14.61553,14.323568 c -0.32949,0.30734 -0.66283,0.61112 -1.00258,0.8933 -0.17436,0.1456 -0.41795,0.31994 -0.6218,0.31994 -0.34487,0 -0.48077,-0.43138 -0.54103,-0.88972 -0.11538,-0.87712 -0.12564,-1.90166 -0.12564,-2.79316 v -10.07969 c 0,-0.695598 -0.15,-1.303128 -0.46539,-1.808198 -0.30898,-0.494289 -0.6859,-0.747728 -1.13334,-0.747728 -0.44873,0 -0.82565,0.253439 -1.13463,0.747728 -0.31539,0.50507 -0.46539,1.11439 -0.46539,1.808198 v 14.88794 c 0,1.37322 0.27821,2.59186 0.89616,3.60021 0.60257,0.98499 1.35258,1.46489 2.23464,1.46489 0.30641,0 0.60642,-0.07 0.89745,-0.2085 0.28461,-0.13481 0.55385,-0.32534 0.79872,-0.57517 l 14.61553,-14.32356 c 0.33077,-0.30556 0.66411,-0.60932 1.00258,-0.89151 0.17436,-0.14559 0.41923,-0.32174 0.6218,-0.32174 0.34615,0 0.48077,0.43137 0.54103,0.89152 0.11538,0.87534 0.12564,1.89985 0.12564,2.79317 z m 118.57169,-8.69766 c 0,-1.34087 -0.14359,-2.66198 -0.40257,-3.94353 -0.26282,-1.29593 -0.65128,-2.51097 -1.17565,-3.61098 -0.5077,-1.06946 -1.13078,-1.966378 -1.86925,-2.661978 -0.75898,-0.715363 -1.60001,-1.037097 -2.49233,-1.037097 h -14.55784 c -0.85513,0.06654 -1.65258,0.436777 -2.36284,1.168317 -0.69488,0.71357 -1.28078,1.608678 -1.75643,2.661958 -0.49488,1.08923 -0.86026,2.2881 -1.11155,3.55708 -0.24744,1.25818 -0.38462,2.55411 -0.38462,3.86623 0,1.34265 0.14231,2.66376 0.40129,3.94531 0.26282,1.29593 0.65257,2.51098 1.17437,3.6092 0.51026,1.07125 1.13334,1.96637 1.87053,2.66196 0.76026,0.71716 1.60002,1.03891 2.49233,1.03891 h 14.55784 c 0.85514,-0.0665 1.6513,-0.43858 2.36413,-1.16832 0.69488,-0.71538 1.28078,-1.61048 1.75642,-2.66196 0.49488,-1.09102 0.86027,-2.28991 1.10899,-3.55888 0.24744,-1.25639 0.38718,-2.55232 0.38718,-3.86622"/><path inkscape:connector-curvature="0" id="path32" style="fill:#36ad5d;fill-opacity:1;fill-rule:evenodd;stroke:none;stroke-width:0.75436562" d="m 111.68502,107.51556 c 0.5024,-0.24668 1.03423,-0.2595 1.41896,0.0181 0.63668,0.4594 0.62989,1.54192 -0.0158,2.41774 -0.58162,0.78831 -1.48384,1.13984 -2.12354,0.86525 -1.01613,0.71665 -2.49092,2.19672 -3.33279,3.35693 0.37266,0.5786 0.17652,1.50722 -0.50467,2.2035 -0.75965,0.77775 -1.83688,0.96861 -2.40416,0.42547 -0.56804,-0.54466 -0.41189,-1.6151 0.34851,-2.39285 0.65404,-0.66988 1.54344,-0.90373 2.14014,-0.60953 1.16097,-0.86375 2.65612,-2.38078 3.20454,-3.5259 -0.22329,-0.48431 -0.14785,-1.16399 0.22405,-1.77804 l -0.002,7.5e-4 c 0.23461,-0.76493 -0.45564,-1.51099 -1.56757,-1.40237 h 7.5e-4 c -0.86073,0.34928 -1.76597,0.26026 -2.3242,-0.31306 -0.80264,-0.82528 -0.58086,-2.34381 0.49487,-3.39087 1.07723,-1.04556 2.6018,-1.22509 3.40445,-0.39982 0.68949,0.70911 0.62311,1.92891 -0.0905,2.92166 l -0.002,0.003 v 7.5e-4 c -0.31834,0.47676 -0.30476,1.65886 1.1308,1.59926 m -6.54488,5.3658 c 1.21981,-1.18586 1.47026,-2.90506 0.56049,-3.84047 -0.90825,-0.93391 -2.635,-0.73249 -3.85405,0.45337 -1.21981,1.18511 -1.47026,2.90506 -0.56125,3.84048 0.90977,0.93466 2.63576,0.73249 3.85481,-0.45338 m 4.01926,5.66303 c -0.58237,0.59444 -1.38426,0.76794 -1.79313,0.38849 -0.40811,-0.38095 -0.26553,-1.17228 0.31608,-1.76747 0.58237,-0.5952 1.38426,-0.7687 1.79238,-0.3885 0.40811,0.3802 0.26704,1.17153 -0.31533,1.76748 m -16.4067,-4.54732 c 1.363893,-1.32617 1.526081,-3.37277 0.360586,-4.5707 -1.16474,-1.19869 -3.215106,-1.09383 -4.578999,0.23234 -1.364647,1.32769 -1.525327,3.37353 -0.360587,4.5707 1.164741,1.19869 3.215107,1.09459 4.579,-0.23234 m -7.503675,5.91498 c -1.363893,1.32693 -3.414259,1.43103 -4.578999,0.2331 -0.884117,-0.90901 -1.004061,-2.3076 -0.413393,-3.51006 l -0.0015,0.002 c -0.03093,-1.46725 -0.800381,-2.50148 -2.665173,-2.01718 v -7.5e-4 c -1.187372,0.49184 -2.519581,0.31381 -3.374278,-0.56502 -1.16474,-1.19794 -1.003306,-3.24453 0.360587,-4.57146 1.01085,-0.98369 2.398883,-1.29449 3.524396,-0.90297 1.753146,0.58161 3.408224,-0.54918 3.488941,-2.23368 v 7.5e-4 c -0.236116,-1.081 0.132769,-2.33174 1.068936,-3.24226 1.364648,-1.32618 3.415013,-1.43028 4.579754,-0.23235 1.165495,1.19794 1.003306,3.24529 -0.360587,4.57071 -1.194161,1.16097 -2.914114,1.38577 -4.104503,0.62159 -1.392559,-0.18331 -2.921658,1.04706 -2.916378,2.45471 l -0.0091,-0.009 c 0.159926,0.65026 0.0958,1.36615 -0.181802,2.03528 -0.220275,1.45366 0.953518,3.02651 2.406426,2.30383 1.227353,-0.57935 2.643297,-0.42773 3.537975,0.4926 1.16474,1.19793 1.003306,3.24453 -0.361341,4.5707 m -7.308294,3.02953 c -0.964834,0.66309 -2.090347,0.67365 -2.515055,0.0234 -0.425462,-0.65026 0.01282,-1.71467 0.976903,-2.37776 0.96408,-0.66309 2.090347,-0.67365 2.515055,-0.0226 0.425462,0.64951 -0.01282,1.71392 -0.976903,2.377 m 3.402943,-21.95506 c -0.811697,0.78907 -2.029243,0.85017 -2.721751,0.1373 -0.693262,-0.71212 -0.596703,-1.928159 0.21424,-2.716471 0.810943,-0.789821 2.029243,-0.85017 2.722505,-0.138049 0.691753,0.712121 0.595949,1.92891 -0.214994,2.71722 m 18.663005,6.53357 c -1.485346,1.4431 -3.587008,1.69053 -4.694417,0.55219 -1.106654,-1.13834 -0.802645,-3.23321 0.682701,-4.67631 1.485346,-1.44386 3.587008,-1.69054 4.694416,-0.55144 1.10741,1.13833 0.80189,3.2317 -0.6827,4.67556 m -5.2268,-10.120371 c -0.306272,-1.463469 1.110426,-3.196247 2.613122,-3.11025 0.598212,0.141067 1.281668,0.07393 1.945509,-0.189345 1.832359,-0.175013 2.963909,1.285439 2.882439,2.750417 l 0.001,-7.55e-4 c -0.93616,1.227353 -1.04328,2.770785 -0.18029,3.659424 0.97917,1.00557 2.83868,0.78756 4.15203,-0.48883 1.31335,-1.277136 1.58341,-3.129858 0.60425,-4.136182 -0.60878,-0.625369 -1.55626,-0.778505 -2.50223,-0.498635 -2.12732,0.03545 -3.26037,-1.572098 -2.73609,-3.209072 0.72947,-1.243949 0.73098,-2.668945 -0.10561,-3.528168 -1.06441,-1.09383 -3.08385,-0.856959 -4.511864,0.530319 -1.101374,1.070445 -1.52759,2.512792 -1.176056,3.619447 h -7.54e-4 c 0.263273,1.678463 -1.233388,3.230948 -3.088373,2.989551 -1.015376,-0.162189 -2.155977,0.187837 -3.02048,1.028954 -1.364647,1.326175 -1.526082,3.372766 -0.361341,4.570706 1.16474,1.19868 3.215861,1.09458 4.578999,-0.23235 1.089304,-1.05913 1.412173,-2.577666 0.905239,-3.755231 m 15.18689,-4.145239 c -0.6744,0.705332 -1.63018,0.901467 -2.13334,0.436778 -0.50392,-0.46469 -0.36587,-1.41519 0.30853,-2.121277 0.67516,-0.706086 1.63019,-0.901466 2.1341,-0.436777 0.50392,0.464689 0.36511,1.414435 -0.30929,2.121276 m -21.949778,1.925895 c -0.810943,0.789067 -2.029998,0.85017 -2.722505,0.138804 -0.692508,-0.712122 -0.596703,-1.928159 0.21424,-2.717225 0.810943,-0.787558 2.029997,-0.85017 2.722505,-0.138049 0.692508,0.712121 0.595949,1.928158 -0.21424,2.71647 M 98.0139,119.11242 c -1.219055,1.18436 -2.945798,1.38728 -3.854809,0.45338 -0.90901,-0.93617 -0.658561,-2.65537 0.560494,-3.84048 1.219809,-1.18511 2.945798,-1.38803 3.854808,-0.45337 0.909765,0.93541 0.658562,2.65461 -0.560493,3.84047 m 3.79069,2.22086 c 0.82452,-0.77248 1.06215,-1.83613 0.53258,-2.37626 -0.53032,-0.54012 -1.62943,-0.35229 -2.453952,0.42019 -0.572564,0.53635 -0.86224,1.21377 -0.807926,1.75842 -0.683455,1.11345 -2.502985,2.4796 -3.7756,3.11553 -0.513723,-0.30853 -1.331455,-0.16219 -2.025471,0.36511 -0.899959,0.14409 -1.198687,-0.35228 -1.20774,-0.82301 0.614808,-0.95578 0.692508,-2.02622 0.106366,-2.68101 -0.772471,-0.863 -2.406427,-0.67667 -3.649621,0.4149 -1.243195,1.09232 -1.624149,2.678 -0.852433,3.54099 0.7604,0.84866 2.353621,0.68195 3.588517,-0.3621 0.749085,-0.089 1.11797,0.3885 1.130794,0.99954 -0.252712,0.56879 -0.232345,1.13984 0.111646,1.49062 0.530319,0.54013 1.628676,0.35154 2.452443,-0.42093 0.663087,-0.62009 0.946729,-1.42877 0.758137,-2.00284 0.899958,-1.0199 2.595018,-2.32948 3.745426,-2.92543 0.560494,0.42093 1.573614,0.20971 2.346834,-0.51372 m -16.399157,6.79004 c -0.88638,0.60877 -1.993034,0.56125 -2.472056,-0.10787 -0.479022,-0.66913 -0.14861,-1.70487 0.737769,-2.3144 0.88638,-0.60953 1.99228,-0.56049 2.472056,0.10788 0.478268,0.66912 0.14861,1.70562 -0.737769,2.31439 m 18.288087,-4.82417 c -0.58237,0.5952 -1.38426,0.76795 -1.79313,0.38775 -0.40811,-0.37945 -0.26629,-1.17078 0.31533,-1.76597 0.58237,-0.5952 1.38426,-0.76946 1.79313,-0.3885 0.40735,0.37944 0.26629,1.17077 -0.31533,1.76672 m 10.05419,-22.64983 c -0.58011,0.7853 -1.5027,1.10062 -2.06093,0.70307 -0.55899,-0.39755 -0.54164,-1.356349 0.0385,-2.143152 0.57935,-0.786049 1.5027,-1.10062 2.06168,-0.702315 0.55748,0.397551 0.54088,1.35635 -0.0392,2.142397"/></g></svg>