<?xml version="1.0" encoding="UTF-8"?>
<svg width="1124px" height="248px" viewBox="0 0 1124 248" version="1.1" xmlns="http://www.w3.org/2000/svg" xmlns:xlink="http://www.w3.org/1999/xlink">
    <!-- Generator: Sketch 50.2 (55047) - http://www.bohemiancoding.com/sketch -->
    <title>cc-bolder</title>
    <desc>Created with Sketch.</desc>
    <defs></defs>
    <g id="cc-bolder" stroke="none" stroke-width="1" fill="none" fill-rule="evenodd">
        <g id="Group-2" transform="translate(47.000000, 48.000000)">
            <g id="logo-2" transform="translate(0.797688, 0.014220)">
                <path d="M91.0703416,123.900682 L171.241371,123.900682 L171.241371,150.971419 L91.0703416,150.971419 L91.0703416,123.900682 Z M91.0703416,86.4181228 L171.241371,86.4181228 L171.241371,113.48886 L91.0703416,113.48886 L91.0703416,86.4181228 Z M91.0703416,48.9355635 L171.241371,48.9355635 L171.241371,76.0063008 L91.0703416,76.0063008 L91.0703416,48.9355635 Z M131.676447,37.4825593 C121.325925,37.4825593 112.935168,29.0918026 112.935168,18.7412796 C112.935168,8.39075671 121.325925,0 131.676447,0 C142.02697,0 150.417727,8.39075671 150.417727,18.7412796 C150.417727,29.0918026 142.02697,37.4825593 131.676447,37.4825593 Z" id="Rectangle-2" fill="#EC5F3E"></path>
                <path d="M179.601554,124.065401 L259.994631,124.065401 L259.994631,150.910444 L179.601554,150.910444 L179.601554,124.065401 Z M179.601554,86.4823399 L259.994631,86.4823399 L259.994631,113.327383 L179.601554,113.327383 L179.601554,86.4823399 Z M219.798093,75.7443225 C209.438123,75.7443225 201.039708,67.3310678 201.039708,56.9527921 C201.039708,46.5745164 209.438123,38.1612617 219.798093,38.1612617 C230.158062,38.1612617 238.556477,46.5745164 238.556477,56.9527921 C238.556477,67.3310678 230.158062,75.7443225 219.798093,75.7443225 Z" id="Rectangle-5" fill="#3E5667"></path>
                <path d="M0.487489933,123.900682 L80.6585195,123.900682 L80.6585195,150.971419 L0.487489933,150.971419 L0.487489933,123.900682 Z M41.0935958,113.48886 C30.7430729,113.48886 22.3523162,104.865027 22.3523162,94.7475804 C22.3523162,83.5889519 30.7430729,74.9651186 41.0935958,74.9651186 C51.4441188,74.9651186 59.8348755,83.5889519 59.8348755,94.7475804 C59.8348755,104.865027 51.4441188,113.48886 41.0935958,113.48886 Z" id="Rectangle-6" fill="#F9CA3F"></path>
            </g>
            <path d="M793.54,123.5 C784.030586,123.5 775.932356,120.256171 769.272356,113.777396 C762.609568,107.295908 759.272,99.3947269 759.272,90.103 C759.272,80.8107944 762.609966,72.9313784 769.273615,66.4943836 C775.931422,60.0630329 783.648543,56.84 792.401,56.84 C801.131569,56.84 808.589151,59.2880815 814.708999,64.1520008 C815.557429,64.6822696 816.043059,65.4916521 816.147519,66.5362481 C816.250844,67.5695046 815.937322,68.5100708 815.220919,69.3288108 C813.71202,71.0388957 811.949521,71.252532 810.111652,69.9244344 C805.289533,66.0667386 799.459482,64.138 792.602,64.138 C785.766741,64.138 779.749594,66.6761419 774.526012,71.7680377 C769.306836,76.8556371 766.704,82.9799576 766.704,90.17 C766.704,97.3594506 769.30634,103.460736 774.524459,108.503455 C779.748237,113.551644 785.743728,116.068 792.535,116.068 C799.350887,116.068 805.206443,114.181941 810.131255,110.40066 C811.955366,109.083247 813.742035,109.349914 815.291884,111.149738 C816.873256,112.98617 816.574475,114.83318 814.482562,116.426993 C808.408888,121.14089 801.422292,123.5 793.54,123.5 Z M889.118,111.508667 C886.372485,115.02007 883.021164,117.837041 879.067237,119.956672 C874.661907,122.318292 869.957802,123.5 864.962,123.5 C856.247161,123.5 848.790826,120.226487 842.622493,113.695312 C836.459653,107.169952 833.374,99.3196864 833.374,90.17 C833.374,81.0203136 836.459653,73.1700482 842.622493,66.6446882 C848.790826,60.113513 856.247161,56.84 864.962,56.84 C869.957802,56.84 874.661907,58.0217077 879.067237,60.3833276 C883.020958,62.5028485 886.372271,65.2836094 889.118,68.7231293 L889.118,60.556 C889.118,59.5304283 889.483075,58.6438187 890.202447,57.9244466 C890.921819,57.2050746 891.808428,56.84 892.834,56.84 C893.859572,56.84 894.746181,57.2050746 895.465553,57.9244466 C896.184925,58.6438187 896.55,59.5304283 896.55,60.556 L896.55,119.784 C896.55,120.809572 896.184925,121.696181 895.465553,122.415553 C894.746181,123.134925 893.859572,123.5 892.834,123.5 C891.808428,123.5 890.921819,123.134925 890.202447,122.415553 C889.483075,121.696181 889.118,120.809572 889.118,119.784 L889.118,111.508667 Z M840.806,90.17 C840.806,97.3686018 843.192098,103.476137 847.971893,108.51904 C852.74742,113.55744 858.423469,116.068 865.029,116.068 C871.633895,116.068 877.286864,113.557994 882.017528,108.520713 C886.753531,103.477747 889.118,97.3695354 889.118,90.17 C889.118,82.9698844 886.753091,76.838639 882.016053,71.7507093 C877.285345,66.6695783 871.632942,64.138 865.029,64.138 C858.424421,64.138 852.748939,66.6701383 847.973377,71.7523883 C843.192543,76.840248 840.806,82.9708168 840.806,90.17 Z M942.388709,91.9893717 C935.390076,90.7277208 930.391597,89.0126722 927.421558,86.8495938 C922.536909,83.992535 920.072,79.8998552 920.072,74.626 C920.072,69.3678064 922.519914,64.9338487 927.390736,61.349979 C931.767267,58.3411135 937.225862,56.84 943.754,56.84 C946.397617,56.84 949.062203,57.2727105 951.746266,58.1370697 C954.409195,58.9946233 956.446298,59.8094644 957.863416,60.5865938 C959.258453,61.3516139 961.164617,62.4953122 963.618,64.042 C964.431624,64.6522177 964.945626,65.4746221 965.14829,66.4879419 C965.351447,67.5037243 965.195774,68.4377592 964.679999,69.2629995 C964.158673,70.0971212 963.369574,70.6231871 962.344058,70.8282903 C961.328276,71.0314468 960.394241,70.8757743 959.552845,70.3494633 C957.32669,68.835678 955.658527,67.7458116 954.551752,67.0817465 C953.468447,66.4317636 951.866334,65.7294673 949.751076,64.9803136 C947.65883,64.2393098 945.660213,63.87 943.754,63.87 C938.678595,63.87 934.723725,65.0216929 931.873067,67.3108575 C929.033358,69.5912299 927.638,71.9379688 927.638,74.358 C927.638,76.7852266 928.811833,78.9232798 931.172764,80.7796356 C934.229392,82.8756088 938.627489,84.370962 944.29,85.248 L944.634029,85.2538142 C950.498358,86.1560187 955.870166,87.9616686 960.77783,90.6896492 C965.828944,93.9958335 968.374,98.4612492 968.374,104.039 C968.374,109.607519 965.860818,114.264976 960.86923,117.974322 C955.913934,121.656697 950.292998,123.5 944.016737,123.499972 C935.413224,123.409409 927.221899,120.241493 919.4551,114.009992 L919.437189,113.994919 C917.718711,112.478615 917.556025,110.743301 918.966,109.032 C919.586086,108.205219 920.427861,107.73172 921.460248,107.628481 C922.493505,107.525156 923.434071,107.838678 924.217008,108.526304 C931.106392,113.560854 937.352264,116.068 942.95,116.068 C948.560296,116.068 952.960851,114.760904 956.204071,112.133706 C959.379615,109.988068 960.916961,107.524103 960.875056,104.716462 C960.83277,101.8833 959.433837,99.3609824 956.640652,97.1264344 C953.816278,94.866935 949.179242,93.1967228 942.734897,92.1373784 L942.592393,92.0912136 L942.388709,91.9893717 Z M1001.606,64.272 L1001.606,111.61 C1001.606,112.887427 1002.09527,113.9051 1003.09335,114.703566 C1004.12917,115.532223 1005.03317,115.934 1005.796,115.934 C1006.82681,115.934 1007.75615,116.347041 1008.56155,117.152447 C1009.36477,117.95566 1009.78,118.838031 1009.78,119.784 C1009.78,120.734625 1009.36045,121.599942 1008.54997,122.359769 C1007.74715,123.112415 1006.86862,123.5 1005.93,123.5 C1002.4965,123.5 999.6233,122.378753 997.33911,120.141179 C995.052299,117.901038 993.906,115.046987 993.906,111.61 L993.906,64.272 L986.232,64.272 C984.650457,64.272 983.612896,63.9607318 983.135975,63.2453501 C982.718489,62.6191206 982.516,61.8091664 982.516,60.824 C982.516,59.8922605 982.562981,59.2345219 982.664929,58.8267322 C982.999594,57.4880696 984.241728,56.84 986.232,56.84 L993.906,56.84 L993.906,32.952 C993.906,32.0088183 994.297604,31.147289 995.057447,30.3874466 C995.818489,29.6264045 996.703406,29.236 997.689,29.236 C998.670104,29.236 999.572035,29.6225417 1000.37597,30.3762314 C1001.18645,31.1360584 1001.606,32.0013747 1001.606,32.952 L1001.606,56.84 L1009.548,56.84 C1010.49118,56.84 1011.35271,57.2316043 1012.11255,57.9914466 C1012.8724,58.751289 1013.264,59.6128183 1013.264,60.556 C1013.264,61.4991817 1012.8724,62.360711 1012.11255,63.1205534 C1011.35271,63.8803957 1010.49118,64.272 1009.548,64.272 L1001.606,64.272 Z" id="cast" stroke="#3E5667" fill="#3E5667"></path>
            <path d="M371.54,123.5 C362.030586,123.5 353.932356,120.256171 347.272356,113.777396 C340.609568,107.295908 337.272,99.3947269 337.272,90.103 C337.272,80.8107944 340.609966,72.9313784 347.273615,66.4943836 C353.931422,60.0630329 361.648543,56.84 370.401,56.84 C379.131569,56.84 386.589151,59.2880815 392.708999,64.1520008 C393.557429,64.6822696 394.043059,65.4916521 394.147519,66.5362481 C394.250844,67.5695046 393.937322,68.5100708 393.220919,69.3288108 C391.71202,71.0388957 389.949521,71.252532 388.111652,69.9244344 C383.289533,66.0667386 377.459482,64.138 370.602,64.138 C363.766741,64.138 357.749594,66.6761419 352.526012,71.7680377 C347.306836,76.8556371 344.704,82.9799576 344.704,90.17 C344.704,97.3594506 347.30634,103.460736 352.524459,108.503455 C357.748237,113.551644 363.743728,116.068 370.535,116.068 C377.350887,116.068 383.206443,114.181941 388.131255,110.40066 C389.955366,109.083247 391.742035,109.349914 393.291884,111.149738 C394.873256,112.98617 394.574475,114.83318 392.482562,116.426993 C386.408888,121.14089 379.422292,123.5 371.54,123.5 Z M425.908,73.3069164 C425.913754,73.2991775 425.919482,73.2915305 425.925183,73.2839758 C432.891336,62.427634 441.798938,56.974 452.61,56.974 C453.635572,56.974 454.522181,57.3390746 455.241553,58.0584466 C455.960925,58.7778187 456.326,59.6644283 456.326,60.69 C456.326,61.7155717 455.960925,62.6021813 455.241553,63.3215534 C454.522181,64.0409254 453.635572,64.406 452.61,64.406 C445.629609,64.406 439.426818,67.9005299 433.982,74.926 C430.798144,79.1711407 428.186495,84.2173779 426.123214,90.1256068 C425.978312,90.4154095 425.908,90.6966584 425.908,90.974 L425.908,119.784 C425.908,120.809572 425.542925,121.696181 424.823553,122.415553 C424.104181,123.134925 423.217572,123.5 422.192,123.5 C421.166428,123.5 420.279819,123.134925 419.560447,122.415553 C418.841075,121.696181 418.476,120.809572 418.476,119.784 L418.476,60.69 C418.476,59.6644283 418.841075,58.7778187 419.560447,58.0584466 C420.279819,57.3390746 421.166428,56.974 422.192,56.974 C423.217572,56.974 424.104181,57.3390746 424.823553,58.0584466 C425.542925,58.7778187 425.908,59.6644283 425.908,60.69 L425.908,73.3069158 Z M483.468493,113.695312 L483.466139,113.692802 C477.305178,107.078829 474.22,99.2297727 474.22,90.17 C474.22,81.1097648 477.305537,73.2824827 483.46731,66.7129458 C489.63561,60.1364491 497.092405,56.84 505.808,56.84 C514.523595,56.84 521.98039,60.1364491 528.14869,66.7129458 C534.310463,73.2824827 537.396,81.1097648 537.396,90.17 C537.396,99.2302352 534.310463,107.057517 528.14869,113.627054 C521.98039,120.203551 514.523595,123.5 505.808,123.5 C497.093161,123.5 489.636826,120.226487 483.468493,113.695312 Z M505.808,64.138 C499.248362,64.138 493.595106,66.6699601 488.819377,71.7523883 C484.038391,76.84041 481.652,82.9486943 481.652,90.103 C481.652,97.2573057 484.038391,103.36559 488.819377,108.453612 C493.595106,113.53604 499.248362,116.068 505.808,116.068 C512.367638,116.068 518.020894,113.53604 522.796623,108.453612 C527.577609,103.36559 529.964,97.2573057 529.964,90.103 C529.964,82.9486943 527.577609,76.84041 522.796623,71.7523883 C518.020894,66.6699601 512.367638,64.138 505.808,64.138 Z M618.319113,121.24622 L618.282447,121.209553 L618.175118,121.049876 L603.361179,85.8342835 L588.679235,120.915035 L588.571553,121.075553 C588.568828,121.078279 588.584,121.047935 588.584,120.99 L588.558342,121.148114 C588.043342,122.693113 586.9137,123.5 585.27,123.5 C584.391701,123.5 583.711085,123.304126 583.246235,122.885666 C582.535383,122.554575 582.022634,121.972984 581.727024,121.183652 L557.075094,62.5010692 C556.6603,61.5677825 556.6603,60.6162175 557.076817,59.6790985 C558.080228,57.4715938 559.751256,56.7708402 561.889069,57.6870942 C562.820117,58.1008934 563.455429,58.7891473 563.754615,59.6914915 L585.1348,110.321867 L599.824908,75.3525573 C600.532312,73.8366933 601.758531,73.054 603.427,73.054 C605.095469,73.054 606.321688,73.8366933 607.036979,75.3703546 L621.71779,110.31848 L642.969094,59.6829308 C643.378753,58.7611976 644.076533,58.0892616 645.040971,57.6831823 C646.017048,57.2722027 646.968699,57.2722027 647.859899,57.6915906 C648.729315,58.1007278 649.373428,58.7706051 649.778906,59.6829308 C650.1937,60.6162175 650.1937,61.5677825 649.783036,62.4915084 L625.259573,120.91896 C624.957214,121.624462 624.479028,122.228487 623.831855,122.726312 C623.171596,123.234204 622.560265,123.5 621.986,123.5 L621.253983,123.496139 C619.685423,123.300069 618.674354,122.538597 618.319113,121.24622 Z M728.954,111.718031 C726.125567,115.170055 722.705471,117.940399 718.696819,120.026534 C714.247586,122.341951 709.433737,123.5 704.262,123.5 C695.282121,123.5 687.648374,120.251113 681.390213,113.766207 C675.135695,107.285077 672.004,99.4331456 672.004,90.237 C672.004,81.0413244 675.135327,73.1676252 681.389006,66.6420473 C687.647148,60.1118117 695.281376,56.84 704.262,56.84 C709.435164,56.84 714.250303,58.0210717 718.700358,60.3823255 C722.70751,62.5085693 726.126383,65.3003499 728.954,68.7553256 L728.954,32.416 C728.954,31.3830521 729.347246,30.4916941 730.117841,29.7724724 C730.879779,29.0613297 731.783104,28.7 732.804,28.7 C733.829572,28.7 734.716181,29.0650746 735.435553,29.7844466 C736.154925,30.5038187 736.52,31.3904283 736.52,32.416 L736.52,119.784 C736.52,120.809572 736.154925,121.696181 735.435553,122.415553 C734.716181,123.134925 733.829572,123.5 732.804,123.5 C731.783104,123.5 730.879779,123.13867 730.117841,122.427528 C729.347246,121.708306 728.954,120.816948 728.954,119.784 L728.954,111.718031 Z M679.57,90.304 C679.57,97.4103859 681.998571,103.448996 686.865236,108.447192 C691.730157,113.443597 697.497405,115.934 704.195,115.934 C710.896146,115.934 716.620327,113.552566 721.395447,108.777447 C726.174755,103.998138 728.691192,98.1993914 728.954,91.376 L728.95436,89.2509737 C728.691085,82.3180559 726.173849,76.4518014 721.393836,71.6279353 C716.618724,66.8090151 710.895179,64.406 704.195,64.406 C697.498352,64.406 691.73169,66.9179931 686.866755,71.9582414 C681.999352,77.001046 679.57,83.1072549 679.57,90.304 Z" id="crowd" stroke="#EC5F3E" fill="#EC5F3E"></path>
        </g>
    </g>
</svg>