<?xml version="1.0" encoding="UTF-8" standalone="no"?>
<!-- Created with Inkscape (http://www.inkscape.org/) -->

<svg
   xmlns:dc="http://purl.org/dc/elements/1.1/"
   xmlns:cc="http://creativecommons.org/ns#"
   xmlns:rdf="http://www.w3.org/1999/02/22-rdf-syntax-ns#"
   xmlns:svg="http://www.w3.org/2000/svg"
   xmlns="http://www.w3.org/2000/svg"
   xmlns:xlink="http://www.w3.org/1999/xlink"
   xmlns:sodipodi="http://sodipodi.sourceforge.net/DTD/sodipodi-0.dtd"
   xmlns:inkscape="http://www.inkscape.org/namespaces/inkscape"
   width="54mm"
   height="28mm"
   viewBox="0 0 191.33859 99.212596"
   id="svg2"
   version="1.1"
   inkscape:version="0.91 r13725"
   sodipodi:docname="map_2.svg"
   inkscape:export-filename="/Users/Frantisek/Desktop/OSR_schedule_v2.png"
   inkscape:export-xdpi="300"
   inkscape:export-ydpi="300">
  <defs
     id="defs4">
    <marker
       inkscape:isstock="true"
       style="overflow:visible"
       id="marker5048"
       refX="0"
       refY="0"
       orient="auto"
       inkscape:stockid="Arrow2Mend">
      <path
         inkscape:connector-curvature="0"
         transform="scale(-0.6,-0.6)"
         d="M 8.7185878,4.0337352 -2.2072895,0.01601326 8.7185884,-4.0017078 c -1.7454984,2.3720609 -1.7354408,5.6174519 -6e-7,8.035443 z"
         style="fill:#b3b3b3;fill-opacity:1;fill-rule:evenodd;stroke:#cccccc;stroke-width:0.625;stroke-linejoin:round;stroke-opacity:1"
         id="path5050" />
    </marker>
    <marker
       inkscape:stockid="Arrow2Lend"
       orient="auto"
       refY="0"
       refX="0"
       id="Arrow2Lend"
       style="overflow:visible"
       inkscape:isstock="true">
      <path
         id="path4297"
         style="fill:#000000;fill-opacity:1;fill-rule:evenodd;stroke:#000000;stroke-width:0.625;stroke-linejoin:round;stroke-opacity:1"
         d="M 8.7185878,4.0337352 -2.2072895,0.01601326 8.7185884,-4.0017078 c -1.7454984,2.3720609 -1.7354408,5.6174519 -6e-7,8.035443 z"
         transform="matrix(-1.1,0,0,-1.1,-1.1,0)"
         inkscape:connector-curvature="0" />
    </marker>
    <marker
       inkscape:stockid="Arrow1Lend"
       orient="auto"
       refY="0"
       refX="0"
       id="Arrow1Lend"
       style="overflow:visible"
       inkscape:isstock="true">
      <path
         id="path4279"
         d="M 0,0 5,-5 -12.5,0 5,5 0,0 Z"
         style="fill:#000000;fill-opacity:1;fill-rule:evenodd;stroke:#000000;stroke-width:1pt;stroke-opacity:1"
         transform="matrix(-0.8,0,0,-0.8,-10,0)"
         inkscape:connector-curvature="0" />
    </marker>
    <linearGradient
       inkscape:collect="always"
       id="linearGradient20493">
      <stop
         style="stop-color:#ffffff;stop-opacity:1"
         offset="0"
         id="stop20495" />
      <stop
         id="stop20497"
         offset="0.66228247"
         style="stop-color:#ffffff;stop-opacity:1" />
      <stop
         id="stop20499"
         offset="0.72892004"
         style="stop-color:#58abbe;stop-opacity:1" />
      <stop
         style="stop-color:#58abbe;stop-opacity:1"
         offset="1"
         id="stop20501" />
    </linearGradient>
    <linearGradient
       id="linearGradient19975"
       inkscape:collect="always">
      <stop
         id="stop19977"
         offset="0"
         style="stop-color:#58abbe;stop-opacity:1" />
      <stop
         style="stop-color:#58abbe;stop-opacity:1;"
         offset="0.30994481"
         id="stop19979" />
      <stop
         style="stop-color:#58abbe;stop-opacity:1"
         offset="0.38199353"
         id="stop19981" />
      <stop
         id="stop19983"
         offset="0.40963885"
         style="stop-color:#ffffff;stop-opacity:1" />
      <stop
         id="stop19985"
         offset="1"
         style="stop-color:#ffffff;stop-opacity:1" />
    </linearGradient>
    <linearGradient
       id="linearGradient17782"
       inkscape:collect="always">
      <stop
         id="stop17784"
         offset="0"
         style="stop-color:#ffffff;stop-opacity:1" />
      <stop
         style="stop-color:#ffffff;stop-opacity:1"
         offset="0.33965522"
         id="stop17786" />
      <stop
         id="stop17788"
         offset="0.38998711"
         style="stop-color:#58abbe;stop-opacity:1" />
      <stop
         style="stop-color:#58abbe;stop-opacity:1"
         offset="0.69859749"
         id="stop17790" />
      <stop
         style="stop-color:#ffffff;stop-opacity:1"
         offset="0.76303864"
         id="stop17792" />
      <stop
         id="stop17794"
         offset="1"
         style="stop-color:#ffffff;stop-opacity:1" />
    </linearGradient>
    <marker
       inkscape:stockid="Arrow1Sstart"
       orient="auto"
       refY="0"
       refX="0"
       id="marker5216"
       style="overflow:visible"
       inkscape:isstock="true">
      <path
         id="path5218"
         d="M 0,0 5,-5 -12.5,0 5,5 0,0 Z"
         style="fill:#000000;fill-opacity:0.19504646;fill-rule:evenodd;stroke:#000000;stroke-width:1pt;stroke-opacity:0.19504646"
         transform="matrix(0.2,0,0,0.2,1.2,0)"
         inkscape:connector-curvature="0" />
    </marker>
    <marker
       inkscape:stockid="Arrow1Sstart"
       orient="auto"
       refY="0"
       refX="0"
       id="Arrow1Sstart"
       style="overflow:visible"
       inkscape:isstock="true">
      <path
         id="path4288"
         d="M 0,0 5,-5 -12.5,0 5,5 0,0 Z"
         style="fill:#000000;fill-opacity:1;fill-rule:evenodd;stroke:#000000;stroke-width:1pt;stroke-opacity:1"
         transform="matrix(0.2,0,0,0.2,1.2,0)"
         inkscape:connector-curvature="0" />
    </marker>
    <marker
       inkscape:stockid="Arrow2Mstart"
       orient="auto"
       refY="0"
       refX="0"
       id="Arrow2Mstart"
       style="overflow:visible"
       inkscape:isstock="true">
      <path
         id="path4300"
         style="fill:#000000;fill-opacity:1;fill-rule:evenodd;stroke:#000000;stroke-width:0.625;stroke-linejoin:round;stroke-opacity:1"
         d="M 8.7185878,4.0337352 -2.2072895,0.01601326 8.7185884,-4.0017078 c -1.7454984,2.3720609 -1.7354408,5.6174519 -6e-7,8.035443 z"
         transform="scale(0.6,0.6)"
         inkscape:connector-curvature="0" />
    </marker>
    <marker
       inkscape:stockid="Arrow2Lstart"
       orient="auto"
       refY="0"
       refX="0"
       id="Arrow2Lstart"
       style="overflow:visible"
       inkscape:isstock="true">
      <path
         id="path4294"
         style="fill:#000000;fill-opacity:1;fill-rule:evenodd;stroke:#000000;stroke-width:0.625;stroke-linejoin:round;stroke-opacity:1"
         d="M 8.7185878,4.0337352 -2.2072895,0.01601326 8.7185884,-4.0017078 c -1.7454984,2.3720609 -1.7354408,5.6174519 -6e-7,8.035443 z"
         transform="matrix(1.1,0,0,1.1,1.1,0)"
         inkscape:connector-curvature="0" />
    </marker>
    <linearGradient
       inkscape:collect="always"
       id="linearGradient19390">
      <stop
         style="stop-color:#0c80a2;stop-opacity:1"
         offset="0"
         id="stop19392" />
      <stop
         id="stop19394"
         offset="0.36161497"
         style="stop-color:#0c80a2;stop-opacity:1" />
      <stop
         style="stop-color:#d28652;stop-opacity:1"
         offset="0.38998711"
         id="stop19396" />
      <stop
         id="stop19398"
         offset="0.73833418"
         style="stop-color:#d28652;stop-opacity:1" />
      <stop
         id="stop19400"
         offset="0.76513004"
         style="stop-color:#58abbe;stop-opacity:1" />
      <stop
         style="stop-color:#58abbe;stop-opacity:1"
         offset="1"
         id="stop19402" />
    </linearGradient>
    <clipPath
       clipPathUnits="userSpaceOnUse"
       id="clipPath5618">
      <rect
         style="opacity:1;fill:none;fill-opacity:1;stroke:#000000;stroke-width:1;stroke-linecap:butt;stroke-linejoin:miter;stroke-miterlimit:4;stroke-dasharray:none;stroke-dashoffset:0;stroke-opacity:1"
         id="rect5620"
         width="116.16754"
         height="125.25892"
         x="77.781746"
         y="388.18692"
         rx="0"
         ry="0" />
    </clipPath>
    <clipPath
       clipPathUnits="userSpaceOnUse"
       id="clipPath5618-9">
      <rect
         style="opacity:1;fill:none;fill-opacity:1;stroke:#000000;stroke-width:1;stroke-linecap:butt;stroke-linejoin:miter;stroke-miterlimit:4;stroke-dasharray:none;stroke-dashoffset:0;stroke-opacity:1"
         id="rect5620-0"
         width="116.16754"
         height="125.25892"
         x="77.781746"
         y="388.18692"
         rx="0"
         ry="0" />
    </clipPath>
    <linearGradient
       inkscape:collect="always"
       xlink:href="#linearGradient19390"
       id="linearGradient6616"
       gradientUnits="userSpaceOnUse"
       x1="17.325359"
       y1="128.91313"
       x2="478.39401"
       y2="128.91313" />
    <linearGradient
       inkscape:collect="always"
       xlink:href="#linearGradient19390"
       id="linearGradient6750"
       gradientUnits="userSpaceOnUse"
       x1="17.325359"
       y1="128.91313"
       x2="478.39401"
       y2="128.91313" />
    <linearGradient
       inkscape:collect="always"
       xlink:href="#linearGradient19390"
       id="linearGradient6838"
       gradientUnits="userSpaceOnUse"
       x1="17.325359"
       y1="128.91313"
       x2="478.39401"
       y2="128.91313" />
    <linearGradient
       inkscape:collect="always"
       xlink:href="#linearGradient19975"
       id="linearGradient20672"
       gradientUnits="userSpaceOnUse"
       x1="17.325359"
       y1="128.91313"
       x2="393.84467"
       y2="-46.322201" />
    <linearGradient
       inkscape:collect="always"
       xlink:href="#linearGradient17782"
       id="linearGradient20694"
       gradientUnits="userSpaceOnUse"
       x1="17.325359"
       y1="128.91313"
       x2="478.39401"
       y2="128.91313" />
    <linearGradient
       inkscape:collect="always"
       xlink:href="#linearGradient20493"
       id="linearGradient20716"
       gradientUnits="userSpaceOnUse"
       x1="17.325359"
       y1="128.91313"
       x2="478.39401"
       y2="128.91313" />
    <clipPath
       clipPathUnits="userSpaceOnUse"
       id="clipPath5618-4">
      <rect
         style="opacity:1;fill:none;fill-opacity:1;stroke:#000000;stroke-width:1;stroke-linecap:butt;stroke-linejoin:miter;stroke-miterlimit:4;stroke-dasharray:none;stroke-dashoffset:0;stroke-opacity:1"
         id="rect5620-06"
         width="116.16754"
         height="125.25892"
         x="77.781746"
         y="388.18692"
         rx="0"
         ry="0" />
    </clipPath>
    <marker
       inkscape:stockid="Arrow2Mend"
       orient="auto"
       refY="0"
       refX="0"
       id="Arrow2Mend-4"
       style="overflow:visible"
       inkscape:isstock="true">
      <path
         inkscape:connector-curvature="0"
         id="path4303-0"
         style="fill:#b3b3b3;fill-opacity:1;fill-rule:evenodd;stroke:#b3b3b3;stroke-width:0.625;stroke-linejoin:round;stroke-opacity:1"
         d="M 8.7185878,4.0337352 -2.2072895,0.01601326 8.7185884,-4.0017078 c -1.7454984,2.3720609 -1.7354408,5.6174519 -6e-7,8.035443 z"
         transform="scale(-0.6,-0.6)" />
    </marker>
    <linearGradient
       inkscape:collect="always"
       xlink:href="#linearGradient19975"
       id="linearGradient21506"
       gradientUnits="userSpaceOnUse"
       x1="17.325359"
       y1="128.91313"
       x2="393.84467"
       y2="-46.322201" />
    <linearGradient
       inkscape:collect="always"
       xlink:href="#linearGradient17782"
       id="linearGradient21528"
       gradientUnits="userSpaceOnUse"
       x1="17.325359"
       y1="128.91313"
       x2="478.39401"
       y2="128.91313" />
    <linearGradient
       inkscape:collect="always"
       xlink:href="#linearGradient20493"
       id="linearGradient21550"
       gradientUnits="userSpaceOnUse"
       x1="17.325359"
       y1="128.91313"
       x2="478.39401"
       y2="128.91313" />
    <marker
       inkscape:stockid="Arrow2Mend"
       orient="auto"
       refY="0"
       refX="0"
       id="Arrow2Mend-1"
       style="overflow:visible"
       inkscape:isstock="true">
      <path
         inkscape:connector-curvature="0"
         id="path4303-9"
         style="fill:#b3b3b3;fill-opacity:1;fill-rule:evenodd;stroke:#cccccc;stroke-width:0.625;stroke-linejoin:round;stroke-opacity:1"
         d="M 8.7185878,4.0337352 -2.2072895,0.01601326 8.7185884,-4.0017078 c -1.7454984,2.3720609 -1.7354408,5.6174519 -6e-7,8.035443 z"
         transform="scale(-0.6,-0.6)" />
    </marker>
    <marker
       inkscape:stockid="Arrow2Mend"
       orient="auto"
       refY="0"
       refX="0"
       id="Arrow2Mend-1-5"
       style="overflow:visible"
       inkscape:isstock="true">
      <path
         inkscape:connector-curvature="0"
         id="path4303-9-8"
         style="fill:#b3b3b3;fill-opacity:1;fill-rule:evenodd;stroke:#b3b3b3;stroke-width:0.625;stroke-linejoin:round;stroke-opacity:1"
         d="M 8.7185878,4.0337352 -2.2072895,0.01601326 8.7185884,-4.0017078 c -1.7454984,2.3720609 -1.7354408,5.6174519 -6e-7,8.035443 z"
         transform="scale(-0.6,-0.6)" />
    </marker>
    <clipPath
       clipPathUnits="userSpaceOnUse"
       id="clipPath22825">
      <rect
         style="opacity:1;fill:none;fill-opacity:1;stroke:#cccccc;stroke-width:2;stroke-linecap:butt;stroke-linejoin:miter;stroke-miterlimit:4;stroke-dasharray:none;stroke-dashoffset:0;stroke-opacity:1"
         id="rect22827"
         width="156.57365"
         height="73.741203"
         x="267.42746"
         y="-1394.675"
         ry="0" />
    </clipPath>
    <clipPath
       clipPathUnits="userSpaceOnUse"
       id="clipPath23598-5">
      <rect
         y="-1693.8378"
         x="763.29785"
         height="363.66043"
         width="385.75906"
         id="rect23600-9"
         style="opacity:1;fill:none;fill-opacity:1;stroke:#808080;stroke-width:1.85721111;stroke-linecap:butt;stroke-linejoin:miter;stroke-miterlimit:4;stroke-dasharray:none;stroke-dashoffset:0;stroke-opacity:1" />
    </clipPath>
    <clipPath
       clipPathUnits="userSpaceOnUse"
       id="clipPath23909">
      <rect
         style="opacity:1;fill:none;fill-opacity:1;stroke:#808080;stroke-width:0.15320978;stroke-linecap:butt;stroke-linejoin:miter;stroke-miterlimit:4;stroke-dasharray:none;stroke-dashoffset:0;stroke-opacity:1"
         id="rect23911"
         width="31.823017"
         height="30"
         x="123.82703"
         y="-1322.9709" />
    </clipPath>
    <clipPath
       clipPathUnits="userSpaceOnUse"
       id="clipPath22825-4">
      <rect
         style="opacity:1;fill:none;fill-opacity:1;stroke:#cccccc;stroke-width:2;stroke-linecap:butt;stroke-linejoin:miter;stroke-miterlimit:4;stroke-dasharray:none;stroke-dashoffset:0;stroke-opacity:1"
         id="rect22827-9"
         width="156.57365"
         height="73.741203"
         x="267.42746"
         y="-1394.675"
         ry="0" />
    </clipPath>
    <linearGradient
       inkscape:collect="always"
       xlink:href="#linearGradient19975"
       id="linearGradient4354"
       gradientUnits="userSpaceOnUse"
       x1="17.325359"
       y1="128.91313"
       x2="393.84467"
       y2="-46.322201" />
    <linearGradient
       inkscape:collect="always"
       xlink:href="#linearGradient17782"
       id="linearGradient4376"
       gradientUnits="userSpaceOnUse"
       x1="17.325359"
       y1="128.91313"
       x2="478.39401"
       y2="128.91313" />
    <linearGradient
       inkscape:collect="always"
       xlink:href="#linearGradient20493"
       id="linearGradient4398"
       gradientUnits="userSpaceOnUse"
       x1="17.325359"
       y1="128.91313"
       x2="478.39401"
       y2="128.91313" />
    <linearGradient
       inkscape:collect="always"
       xlink:href="#linearGradient17782"
       id="linearGradient4734"
       gradientUnits="userSpaceOnUse"
       x1="17.325359"
       y1="128.91313"
       x2="478.39401"
       y2="128.91313" />
  </defs>
  <sodipodi:namedview
     id="base"
     pagecolor="#ffffff"
     bordercolor="#666666"
     borderopacity="1.0"
     inkscape:pageopacity="0.0"
     inkscape:pageshadow="2"
     inkscape:zoom="0.45254834"
     inkscape:cx="-468.15892"
     inkscape:cy="271.54784"
     inkscape:document-units="px"
     inkscape:current-layer="layer1"
     showgrid="false"
     inkscape:window-width="1440"
     inkscape:window-height="851"
     inkscape:window-x="62"
     inkscape:window-y="23"
     inkscape:window-maximized="0"
     showguides="false" />
  <metadata
     id="metadata7">
    <rdf:RDF>
      <cc:Work
         rdf:about="">
        <dc:format>image/svg+xml</dc:format>
        <dc:type
           rdf:resource="http://purl.org/dc/dcmitype/StillImage" />
        <dc:title></dc:title>
      </cc:Work>
    </rdf:RDF>
  </metadata>
  <g
     inkscape:label="Layer 1"
     inkscape:groupmode="layer"
     id="layer1"
     transform="translate(0,-953.14957)">
    <rect
       style="opacity:1;fill:#ffffff;fill-opacity:1;stroke:#ffffff;stroke-width:0.22781993;stroke-linecap:butt;stroke-linejoin:miter;stroke-miterlimit:4;stroke-dasharray:none;stroke-dashoffset:0;stroke-opacity:1"
       id="rect4725"
       width="191.11078"
       height="98.984779"
       x="0.11376739"
       y="953.26361"
       rx="0" />
    <text
       xml:space="preserve"
       style="font-style:normal;font-weight:normal;font-size:10px;line-height:125%;font-family:Sans;letter-spacing:0px;word-spacing:0px;fill:#000000;fill-opacity:1;stroke:none;stroke-width:1px;stroke-linecap:butt;stroke-linejoin:miter;stroke-opacity:1"
       x="-259.06549"
       y="-772.69916"
       id="text20509"
       sodipodi:linespacing="125%"><tspan
         sodipodi:role="line"
         id="tspan20511"
         x="-259.06549"
         y="-772.69916" /></text>
    <text
       xml:space="preserve"
       style="font-style:normal;font-weight:normal;font-size:10px;line-height:125%;font-family:Sans;letter-spacing:0px;word-spacing:0px;fill:#000000;fill-opacity:1;stroke:none;stroke-width:1px;stroke-linecap:butt;stroke-linejoin:miter;stroke-opacity:1"
       x="-247.20847"
       y="-1273.8147"
       id="text20509-3"
       sodipodi:linespacing="125%"><tspan
         sodipodi:role="line"
         id="tspan20511-9"
         x="-247.20847"
         y="-1273.8147" /></text>
    <flowRoot
       xml:space="preserve"
       id="flowRoot19422-3-4"
       style="font-style:normal;font-weight:normal;font-size:10px;line-height:125%;font-family:Sans;text-align:start;letter-spacing:0px;word-spacing:0px;text-anchor:start;fill:#000000;fill-opacity:1;stroke:none;stroke-width:1px;stroke-linecap:butt;stroke-linejoin:miter;stroke-opacity:1"
       transform="matrix(1.4994985,0,0,1.4994985,-395.76068,-1411.5899)"><flowRegion
         id="flowRegion19424-4-72"><rect
           id="rect19426-07-4"
           width="134.19534"
           height="57.015072"
           x="154.55334"
           y="31.09798"
           style="text-align:start;text-anchor:start" /></flowRegion><flowPara
         style="font-style:normal;font-variant:normal;font-weight:normal;font-stretch:normal;font-size:10.00334454px;line-height:135.00000238%;font-family:'TGL 0-17 Alt';-inkscape-font-specification:'TGL 0-17 Alt';text-align:start;text-anchor:start"
         id="flowPara6941-77" /></flowRoot>    <flowRoot
       xml:space="preserve"
       id="flowRoot23927"
       style="font-style:normal;font-weight:normal;font-size:10px;line-height:125%;font-family:Sans;letter-spacing:0px;word-spacing:0px;fill:#000000;fill-opacity:1;stroke:none;stroke-width:1px;stroke-linecap:butt;stroke-linejoin:miter;stroke-opacity:1"><flowRegion
         id="flowRegion23929"><rect
           id="rect23931"
           width="93.944183"
           height="41.416256"
           x="72.73098"
           y="-1123.5063" /></flowRegion><flowPara
         id="flowPara23933" /></flowRoot>    <text
       xml:space="preserve"
       style="font-style:normal;font-weight:normal;font-size:10px;line-height:125%;font-family:Sans;letter-spacing:0px;word-spacing:0px;fill:#000000;fill-opacity:1;stroke:none;stroke-width:1px;stroke-linecap:butt;stroke-linejoin:miter;stroke-opacity:1"
       x="219.20309"
       y="723.05243"
       id="text24058"
       sodipodi:linespacing="125%"><tspan
         sodipodi:role="line"
         id="tspan24060"
         x="219.20309"
         y="723.05243" /><tspan
         sodipodi:role="line"
         x="219.20309"
         y="735.55243"
         id="tspan24062" /></text>
    <g
       id="g4286-0-4-4-2"
       style="fill:none;stroke:#4d4d4d;stroke-width:0.25;stroke-linejoin:bevel"
       transform="matrix(0.40016262,0,0,0.40016262,-2.1379842,949.11299)">
      <g
         id="g19410-4-9-7-3"
         transform="translate(-8.2222454,5.1389034)">
        <use
           height="100%"
           width="100%"
           y="0"
           x="0"
           style="fill:none;stroke:#4d4d4d;stroke-width:1.5"
           xlink:href="#a-8-8-5-6"
           id="use4288-6-2-9-9" />
        <g
           style="fill:none;stroke:#4d4d4d"
           id="a-8-8-5-6">
          <path
             style="fill:url(#linearGradient4734);stroke:#4d4d4d"
             inkscape:connector-curvature="0"
             d="m 275.9,201.8 -1.4,1.46 -2.36,0 0,-2.15 1.83,-1.18 1.93,0 0,1.87 z m 4.05,-6.3 0,2.12 -1.8,-1.08 0,-1.65 1.8,0 0,-5.97 -4.6,0 -10.94,7.33 -2.69,-3.09 0,6.07 -6.65,0 3.86,10.57 12.67,0 9.75,-11.28 0.44,-3.05 -1.84,0.03 z m -171.6,-119.4 2.52,-1.719 3.04,0 -2.51,1.719 -3.05,0 z m 22.97,-9.127 -3.22,2.792 -7.46,0 -2.31,1.582 1.78,0 -2.48,1.692 -1.77,0 2.47,-1.692 -4.87,0 -2.11,1.64 -2.15,0.215 0.43,-3.705 -1.66,0 -1.94,1.289 -3.6,5.315 -2.12,0 4.08,-6.604 4.81,-1.029 -0.27,-0.903 -3.17,-0.108 -1.5,-0.913 -1.88,0.913 -2.2,0 0.9,-1.945 -4.551,-2.082 -38.81,0 -12.78,13.48 0,10.36 4.666,4.667 16.32,2.098 2.177,3.302 4.59,-0.161 3.788,7.44 7.058,-8.861 16.78,0.053 1.11,8.388 2.66,0.07 0.07,-10.44 27.16,-23.22 1.85,-0.32 1.05,-3.307 -2.9,0 z m 16.06,-1.435 9.48,0 -1.97,-3.138 -1.78,-0.425 0,-2.251 z m -70.28,50.76 -3.657,-7.88 3.036,-3.81 -3.787,-7.442 -4.59,0.161 -2.177,-3.301 -16.32,-2.098 0.031,0.032 0.695,7.348 5.02,9.5 2.057,-1.59 -3.959,-8.441 0,-4.751 2.335,0 0.091,4.419 7.5,17.62 12.23,5.1 3.052,-0.81 2.686,2.74 1.338,-2.38 2.818,0 -0.402,-3.09 2.415,0 3.141,-2.34 0.133,-3.41 -3.435,-0.06 -2.731,4.48 z m 135.4,-76.39 4.54,-2.209 0,-0.622 -2.25,-2.282 -3.15,1.046 -3.78,-0.08 -0.8,1.09 -2.15,-0.05 0,2.02 z m 40.41,47.95 0.01,-2.144 -2.43,-0.064 -0.02,1.58 z m -92.08,-68.56 0,2.26 11.28,0.161 2.89,4.987 0,4.51 -5.41,3.073 0.16,6.12 3.4,3.437 4.02,0 6.14,-6.489 8.67,-2.557 3.25,-2.489 6.56,-0.405 4.59,-1.355 8.65,-13.75 5.33,-1.09 1.88,-1.89 -15.37,-1.546 -13.28,1.546 -16.08,0 -9.27,3.221 z m 261.6,87.05 -1.31,-1.37 -2.15,3.06 2.15,2.01 z m -20.64,-37.93 0.43,-2.416 -4.51,-0.725 -1.72,-2.819 -8.59,0 -17.56,-4.348 -1.93,4.348 -7.14,-2.174 -5.33,4.06 17.36,10.14 20.08,0.215 2.42,-4.924 z m 3.81,45.98 -2.58,0.57 0,1.52 1.05,1.27 1.53,-1.91 z m -9.61,-51.94 1.72,2.819 4.51,0.725 -0.43,2.416 -6.48,1.357 -2.43,4.924 -20.08,-0.215 -17.36,-10.14 -7.51,5.725 1.25,5.811 -7.52,2.793 2.15,5.26 8,3.65 0.32,6.443 20.94,7.242 3.86,-3.538 8.22,3.538 -1.13,3.06 4.35,7.25 7.62,-3.86 4.98,4.26 2.11,-1.2 0.08,2.05 12.48,-4.46 4.08,-9.132 -7.28,-11.98 3.74,-4.079 -4.3,0 -1.38,0.893 -2.7,-4.435 3.44,-3.007 2.36,4.504 3.31,-2.277 6.35,-4.374 0,-8.483 -10.52,-2.684 -7.73,-7.571 -7.51,0 1.71,6.067 z m 43.39,12.76 2.94,-0.04 1.25,-2.134 -6.53,-2.738 0.13,5.395 1.29,0.765 z m -8.12,12.47 -0.48,1.659 6.47,-0.955 0.5,2.498 1.47,-0.624 0.16,-1.966 4.34,-1.115 -0.23,-5.673 -1.97,-3.439 -1.96,-0.568 1.12,5.154 -4.01,3.637 z m -1.14,3.202 2.34,-0.295 0.76,1.128 -0.84,2.657 z m 6.24,-1.1 -1.13,2.053 -1.49,-1.691 z m -7.08,35.04 -3.55,-0.37 -1.29,-1.61 1.29,-2.96 -1.28,-2.84 -2.34,-0.05 -0.57,5 3.31,3.99 3.88,0.49 z m -11.18,8.87 1.57,0.31 2.79,-2.32 -0.06,-1.9 z m 12.25,3.59 0,2.23 2.33,-0.7 -0.79,-1.44 1.88,-0.48 -1.6,-4.99 -1.18,3.08 -3.86,0 z m -6.87,-11.13 1.66,1.63 -0.54,1 -1.34,-1.31 z m 1.66,3.99 1.18,0.8 1.29,-1.95 -1.72,-0.21 z m 4.4,-2.04 1.62,2.09 1.77,0 -1.69,-2.72 z m 0,1.76 0.91,1.59 -0.73,0.97 -1.28,-1.93 z m -1.93,1.61 0.83,1.25 -0.83,1 -0.95,-1.16 z m 3.15,32.76 1.09,1.5 3.06,-0.37 0,-1.13 z m -24.59,-17.64 0.15,4.32 2.46,4.3 7.82,0 3.87,-4.94 0,-8.96 -2.79,0.29 -2.26,4.27 -7.57,1.69 -1.63,-0.99 z m -5.56,11.28 0,-3.3 -12.89,-13.37 -4.41,-1.69 14.93,20.33 z m 15.06,5.88 0.24,1.12 -16.11,-2.73 2.42,-1.94 4.02,1.53 3.63,-0.8 z m 10.3,0 -2.49,0 0.48,1.61 2.38,0 1,-0.81 z m -4.35,2.61 0.73,0.89 1.73,0 -0.6,-1.29 z m 9.14,-2.13 -2.49,2.78 1.89,0.24 1.69,-1.52 z m -8.29,-4.91 1.85,-0.57 -0.56,-3.26 1.09,-1.21 0.92,2.42 2.22,0.77 0,-1.74 -1.25,-2.76 2.37,-1.99 -3.78,0.16 -0.78,-1.08 1.5,-1.65 2.78,0.96 1.37,-0.12 2.05,-2.42 -1.8,-0.04 -1.17,0.77 -3.87,-0.94 -2.56,2.31 0.18,3.66 -1.49,1.98 z m 13.89,-5.19 -0.43,1.51 4.19,-0.43 0,-1.08 z m 0.97,-9.75 -1.4,1.38 -0.53,3.44 1.93,0.47 -0.43,-3.05 1.12,-1.4 z m 9.49,9.15 -0.56,-2.98 -4.59,0.65 z m -0.31,2.48 6.4,2.67 1.15,3.27 -2.13,1.3 5.48,1.9 0,-10.79 -4.45,-2.32 -4.15,3.37 -4.39,-1.73 -0.49,2.42 z m -19.06,-71.18 -4.32,-3.535 -1.91,1.764 2.58,5.584 3.12,-0.215 z m -4.32,-3.535 -1.91,-1.564 2.47,-0.322 -0.43,-4.939 -6.35,4.374 1.86,3.53 2.45,0.685 z m -5.53,56.98 -3.44,4.63 -7.94,3.67 1.63,0.99 7.57,-1.69 2.26,-4.27 2.79,-0.29 0,-3.28 z m -26.32,0 1.38,4.48 5.68,4.84 0.44,-1.72 -5.36,-7.92 z m 68.12,27.58 3.81,-3.5 4.94,4.82 4.51,0.92 -5.58,-5.58 0.27,-2.95 -9.94,-5.2 0,10.79 z m 10.46,-5.78 2.01,1.2 3.47,-1.95 0,-2.02 z m 2.8,-5.67 4.05,2.9 1.62,-0.55 -4.11,-2.45 z m -84.29,-42.84 -4.35,-7.25 1.12,-3.06 -2.52,-1.08 -3.38,2.43 -1.59,10.99 2.51,2.1 0.96,5.02 1.77,0.53 1.27,-1.59 2.36,2.66 1.31,4.86 -0.31,5.02 2.03,-3.98 -3.65,-13.16 2.47,-1.79 z m 7.3,6.18 2.92,3.97 -2.73,2.74 6.12,0 0,-1.56 -5.96,-6.34 -1.32,-4.08 -4.14,-2.02 -2.19,1.11 0,1.7 2.14,1.25 0,3.23 z m -5.16,0 0,-3.23 -2.14,-1.25 -2.47,1.79 3.65,13.16 -2.03,3.98 -0.12,1.98 3.54,3 0.34,1.1 2.14,-0.32 -3.44,-5.07 0.8,-7.84 3.87,3.83 0,-3.21 3.94,-3.95 -2.92,-3.97 z m 4.14,7.92 0,3.21 1.93,1.92 2.17,-0.3 3.23,-2.42 0,-3.62 -6.12,0 z m 1.37,-9.11 5.96,6.34 0,5.18 -3.23,2.42 0.08,3.46 6.18,-4.08 -0.21,-6.07 -6.45,-6.81 0.32,-3.73 2.3,-1.3 -4.98,-4.26 -5.43,2.75 4.14,2.02 z m -25.77,-13.2 -1.37,0.64 1.94,6.13 1.25,-1.21 5.58,4.68 0.36,-2.5 -2.93,-2.74 -0.48,-3.28 -2.34,0.96 z m 2.01,-0.42 -3.38,-0.84 0.47,-2.12 -0.97,-0.336 -2.07,3.296 -11.37,-4.306 0.03,-3.632 -2.84,-0.984 -0.32,-6.443 -2.48,-1.13 -2.29,0 -3.4,2.416 -0.09,2.057 2.06,1.167 0.98,4.021 -4.47,4.114 -2.86,0 0,3.04 2.14,0.81 0,2.62 -3.86,1.03 0.33,0.39 3.19,1.01 -1.49,1.53 1.41,1.83 2.53,0.3 0.45,-2.1 1,0.01 8.13,23.38 5.16,-3.17 0.8,-9.4 11.77,-11.37 -1.94,-6.13 1.37,-0.64 2.01,2.68 2.34,-0.96 0.48,3.28 2.93,2.74 1.23,-8.49 3.38,-2.43 -5.69,-2.458 -3.86,3.538 z m -17.29,-7.938 -0.03,3.632 11.37,4.306 2.07,-3.296 z m 14.38,4.978 -0.47,2.12 3.38,0.84 0.81,-1.68 z m -64.41,-27.17 2.41,2.002 3.07,-0.848 2.72,2.27 -0.47,-5.894 4.19,-0.966 5.52,3.785 4.62,-0.886 3.38,4.456 3.26,-0.144 3.19,-2.621 7.53,-0.327 4.82,2.233 -1.25,-5.811 7.51,-5.723 -4.33,-2.532 -25.24,-8.901 -9.95,2.243 0,4.498 -17.64,0 0,5.812 2.36,2.952 5.05,-2.04 3.01,2.04 -3.65,1.771 z m 19.32,13.88 -1.69,-2.737 -6.6,-2.094 -3.9,1.3 -0.07,1.737 -4.97,-0.003 -2.74,-4.835 -6.55,0.647 0,1.933 7.95,13.49 2.36,0.226 5.48,5.717 10.09,3.01 2.8,0 2.03,-3.49 -2.25,-2.821 -3.22,-9.341 z m -11.12,-10.45 -2.72,-2.27 -3.07,0.848 4.9,4.058 -0.18,4.286 3.9,-1.3 6.61,2.094 1.69,2.737 6.28,-3.221 -10.35,-8.283 -4.39,0 z m 26.12,23.98 2.86,0 4.47,-4.114 -0.98,-4.021 -2.06,-1.167 0.09,-2.057 3.4,-2.416 2.29,0 -4.77,-2.179 -5.08,0.733 -1.61,6.978 -5.87,5.427 -6.3,-0.063 0.5,1.428 2.25,2.821 -2.03,3.49 8.8,0 2.32,2.64 3.86,-1.03 0,-2.62 -2.14,-0.81 z m -16.88,-27.06 -5.52,-3.785 -4.19,0.966 0.47,5.894 2.67,-1.051 4.39,0 10.35,8.283 3.39,0.907 -1.54,-4.53 4.81,-1.38 0.27,-2.048 -7.1,0.314 -3.38,-4.456 z m 1.88,13.53 -1.28,2.739 2.72,7.913 6.3,0.063 5.87,-5.427 1.61,-6.978 -1.04,-2.94 -4.5,2.316 -3.39,-0.907 z m 13.75,-5.985 -4.04,-1.311 -1.57,0.452 1.54,4.53 4.5,-2.316 1.04,2.94 5.08,-0.733 -0.75,-0.341 -1.48,-3.631 z m -1.18,-6.738 -3.19,2.621 3.84,-0.17 -0.27,2.048 -3.24,0.928 4.04,1.311 4.32,-0.41 -0.67,-1.629 7.52,-2.793 -4.82,-2.233 z m -38.55,3.772 2.88,2.628 3.13,-0.309 -2.18,-3.841 -2.36,-0.584 z m -6.19,-1.087 4.27,1.087 1.92,0 1.47,-2.106 -5.45,-2.471 -2.21,0.478 z m 5.65,4.053 3.42,-0.338 -2.88,-2.628 -1.92,0 z m -32.55,-32.75 -1.13,0.267 0.29,0.217 -0.32,1.45 -3.17,-1.45 0.01,1.882 4.32,1.102 3.11,1.423 1.2,-1.026 -0.43,-3.056 -1.58,0.48 z m -4.31,4.517 2.41,0.803 0.66,1.364 0.52,1.455 3.83,-3.248 -3.11,-1.423 -4.32,-1.102 z m 12.24,-0.652 -3.62,0 -5.03,4.274 0.8,2.205 7.21,1.15 4.5,-0.982 -2.68,-1.09 1.61,-1.027 z m -10.04,-5.588 -0.38,0.966 1.36,1.024 1.13,-0.267 2.3,1.289 1.58,-0.48 -0.49,-3.481 -0.9,0.845 z m 9.4,13.22 -7.21,-1.15 0.45,1.252 -2.58,3.217 0,1.82 9.75,0 0.94,1.782 -1.69,2.649 1.48,0.619 0.4,-1.228 5.78,0 -1.28,1.328 1.78,1.007 2.4,-0.188 -2.28,-2.912 6,-1.275 1.53,-3.436 -10.97,-4.467 z m -13.73,-28.16 -10.1,7.408 0,6.589 -1.39,2.177 3.8,4.375 6.2,-5.49 -2.9,-3.6 6.53,-7.137 1.29,0 -1.78,-4.322 z m -17.81,16.67 5.91,-0.966 0.41,0.471 1.39,-2.177 0,-6.589 10.11,-7.408 5.59,0 0,-1.845 -5.73,0.292 -19.65,13.6 z m 23.41,-16.67 -3.94,0 1.77,4.322 1.04,0 -3.14,7.113 3.67,1.852 5.59,0 3.14,-3.624 -5.21,-11.66 -2.92,0.148 z m 169.4,32.4 1.93,0 -6.81,-6.979 -1.93,-0.055 5.47,6.765 2.68,4.993 1.99,0 z m -170.5,-10.41 -2.41,-0.803 0.01,1.603 3.06,0.564 z m 144.1,-24.13 -1.85,-2.513 -11.44,-1.87 -3.22,2.899 -9.26,0 -3.86,-2.899 -20.94,0 -1.29,-4.616 -19.33,0 -17.04,7.622 3.73,4.618 -3.22,3.328 -2.91,-9.511 -5.14,-0.407 2.47,5.623 -19.87,0.537 -18.57,7.623 -2.45,-4.668 7.06,0.266 3.44,-1.718 -13.53,-4.314 -2.88,0.147 5.21,11.66 -3.14,3.624 -0.76,0.71 0.49,3.481 0.43,3.056 3.62,0 2.79,4.53 -1.61,1.027 2.68,1.09 10.97,4.467 -1.53,3.436 0.72,1.717 -1.77,0.483 0.31,2.824 6.41,2.245 2.21,-0.478 5.45,2.471 2.36,0.584 -1.47,-2.577 0,-5.229 -2.36,-2.952 0,-5.812 17.64,0 0,-4.498 9.95,-2.243 25.24,8.901 4.33,2.53 5.33,-4.06 7.14,2.174 1.93,-4.348 17.56,4.348 8.59,0 3.22,-0.644 -1.72,-6.067 7.52,0 7.73,7.571 10.52,2.684 0,8.483 4.61,-0.81 2.48,-3.7 0,-6.872 -7.09,-8.053 -6.87,-0.107 1.18,-8.482 14.17,0.107 1.54,-4.814 5.98,2.263 0.02,-2.219 1.48,0.153 2.58,2.469 -2.49,1.695 -0.3,5.069 10.09,9.557 0,-9.234 -5.69,-5.477 13.48,-4.268 0.17,-1.376 -6.78,-1.845 2.64,-2.057 6.06,1.252 4.11,0.081 -3.3,-3.541 -21.16,-4.191 z m -151.1,35.94 -2.49,2.041 3.62,1.345 3.86,-0.666 3.06,-3.218 -1.21,0 0,-0.761 z m -1.85,-1.75 1.85,1.75 6.84,-1.259 0,-1.059 -6.2,-0.753 -0.26,-0.102 z m -13.06,4.977 2.22,0.159 2.01,-0.464 -0.72,-2.175 -1.89,0 -1.23,0.567 z m 8.5,-4.977 4.56,0 2.23,-1.423 -4.36,-1.718 -3.9,1.208 z m -30.64,20.96 0.9,0.068 1.04,-8.736 -3.38,-0.565 -0.17,6.388 z m 52.89,-15.28 1.69,-2.649 -0.94,-1.782 -2.89,0 z m -8.19,-14.38 -3.06,-0.564 -3.22,0.106 -0.73,-0.669 -4.62,1.127 -0.41,-0.005 0.41,5.561 4.37,1.718 0.25,0.102 6.2,0.753 2.58,-3.217 -0.45,-1.252 -0.8,-2.205 z m 0.4,9.949 -3.06,3.218 2.74,4.55 6.84,-0.779 1.95,0.537 0.8,-2.476 -1.48,-0.619 -2.14,-4.431 z m -12.45,-9.954 -5.93,-0.068 -0.27,-1.054 -2.08,0 0.42,1.015 -3.12,1.869 -0.28,5.385 1.89,0.987 -0.75,3.632 1.23,-0.567 4.4,0 0.38,-0.111 3.19,-0.936 -1.09,-1.45 -1.47,-1.933 3.9,-1.208 z m -8.28,-1.122 2.08,0 -0.11,-0.446 0.68,-3.822 -1.87,-0.026 -1.33,2.998 z m 5.55,-1.338 -1.17,-1.159 -1.04,0.427 -0.32,1.643 1.94,-0.019 z m 1.81,12.61 -3.57,1.047 -2.51,0 0.72,2.175 3.81,-0.881 4.38,0 1.83,-1.504 0.66,-0.537 -1.85,-1.75 -4.56,0 z m 2.18,17.39 -3.87,0 0,0.967 1.45,0.993 2.42,0.375 z m -10.15,-5.449 0,3.973 1.85,0 0,-3.436 z m -1.62,-8.418 -0.35,1.707 2.24,1.021 2.6,0 8,7.983 0.41,3.397 1.47,-0.859 0.46,-2.442 1.82,-0.365 -9.76,-8.447 2.77,-0.166 -1.62,-3.015 -5.82,1.345 z m 2.55,5.681 0,1.638 0.92,0.347 0.41,-1.985 z m -18.46,-10.04 0,1.181 3.32,1.794 0.44,5.883 4.92,3.147 1.52,-1.965 7.2,0.052 0.21,-3.005 0.19,0 -2.24,-1.021 1.49,-7.252 -6.55,-3.417 -7.68,4.603 z m 12.33,-5.696 -1.83,1.093 3.67,1.914 1.05,-0.566 0.04,-0.886 z m 2.93,1.555 0.18,-3.417 -3.11,1.862 z m -1.09,1.452 0.99,0.516 0.05,-1.082 z m -12.02,-8.37 0.04,2.469 -1.69,0.926 1.49,2.169 -3.02,2.864 3.99,-0.725 4.06,-0.644 0.26,-1.49 0.83,0 0.18,-1.663 -2.63,-0.555 -3.29,-7.56 -2.51,-0.077 0,4.071 z m -3.18,1.784 0,-1.613 -2.94,-0.199 1.69,2.255 z m -5.92,0.373 0,4.403 1.69,-0.011 0,-1.503 3.22,0.443 -0.24,-3.262 -1.69,-2.255 z m 1.62,29.32 7.05,0.527 6.96,-8.936 -4.92,-3.147 -11.38,0.082 -0.05,2.173 3.38,0.565 z m 15.62,-3.76 0,-1.891 -2.18,1.891 z m 25.76,-2.199 4.47,-1.446 -1.03,-2.402 -3.68,0.72 z m -2.83,-10.16 0.82,4.56 1.77,2.469 3.68,-0.72 -0.94,-2.205 -2.74,-4.55 z m -7.65,1.89 0.41,-0.024 2.1,-1.099 0.95,-1.63 -0.7,-0.262 -4.38,0 z m 22.32,8.844 -3.33,-0.027 2.74,5.506 12.59,0.695 12.37,-2.523 0,-1.933 -1.38,-2.966 -4.27,-1.087 -17.24,0.564 z m -3.34,-1.248 3.07,0 -1.24,-2.67 -1.86,0.601 z m -13.75,-3.57 1.11,0.275 2.13,-1.631 -0.6,-3.354 -4.55,0.616 z m 3.59,4.777 1.42,1.64 2.74,0.766 -1.67,0.708 2.21,2.778 1.39,-2.2 -1.55,-3.383 3.08,-1.516 2.54,0 -0.03,-2.069 z m -2.44,-10.47 -2.92,-1.083 -0.95,1.63 -2.1,1.099 0.73,-0.044 3.39,3.92 0.7,0.174 -1.91,-4.094 4.55,-0.616 -0.22,-1.206 z m 1.29,6.3 1.6,-0.851 -0.8,-1.109 -2.13,1.631 z m 0,0 0.9,3.881 0.25,0.292 1.66,-0.536 -0.24,-3.128 -0.97,-1.36 z m 7.28,2.191 5.86,-1.895 0.96,-2.954 -1.95,-0.537 -6.84,0.779 z m 43.73,28.14 1.36,0.9 0.89,-0.92 -1.56,-2.2 z m -27.13,-18.53 -3.59,1.329 2.57,0.644 z m 2.31,4.593 0,6.453 1.35,0.161 2.01,-0.94 0.62,-3.624 1.57,-0.664 0.08,-0.034 -0.46,-1.925 -3.23,1.925 z m 24.38,13.65 -3.55,-5.8 -1.55,0 -1.11,-1.439 -3.03,-0.01 -9.59,-5.013 -1.58,0.664 -0.61,3.624 -2.02,0.94 -1.34,-0.161 12.51,21.74 0.25,0.81 1.3,-2.23 4.44,0.56 -0.41,1.69 6.29,-3.3 8.85,-2.37 0,-4.61 -4.61,-0.65 -1.4,-2.57 z m -7.61,-7.244 1.41,0.005 1.1,1.439 1.55,0 -1.88,-3.06 -1.77,0 z m -8.98,-8.541 -2.62,1.564 0.48,2.011 9.49,4.961 1.63,0.005 0.41,-1.616 3.49,-0.021 -7.84,-13.29 -3.6,0.735 z m 22.79,18.32 -3.36,-0.66 1.4,2.57 2.6,0.37 3.7,-3.76 -1.69,-1.5 z m 0.64,2.28 2.01,0.28 0,4.61 -4.45,1.19 0,2.68 2.48,1.68 8.2,-10.16 -4.54,-4.04 -3.7,3.76 z m -29.76,-21.17 -1.46,2.701 1.94,1.352 5.85,-3.489 1.44,-5.653 -8.77,1.788 -0.59,2.75 z m 22.92,28.43 -6.29,3.3 0.41,-1.69 -4.44,-0.56 -1.3,2.23 2.22,7.24 16.28,-7.34 -2.48,-1.68 0,-2.68 z m -24.38,-25.73 1.46,-2.701 -1.59,-0.551 -0.58,2.748 z m -0.04,6.548 0.04,-0.095 0,-6.453 -0.71,-0.504 -1.12,4.135 z m 13.38,92.14 1.7,4.02 4.07,0.18 6.93,-22.23 -2.47,0 -8.05,8.36 -0.81,5.8 z m -44.74,-54.6 -1.18,-3.49 2.36,0 -2.91,-6.18 0,3.42 -4.18,8.66 -3.65,0.21 -0.51,3.56 1.58,0 -0.08,3.64 10.07,0 0.45,-1.29 -0.02,0 -3.01,-4.24 z m -5.8,12.47 -2.83,0 -0.09,4.33 3.63,4.85 0,-4.15 4.66,0 -2.38,-7.68 -2.99,0 z m 0,0 0,-2.65 -2.76,0 -0.07,2.65 z m -9.45,-9.14 0.64,2.85 4.54,0 0.51,-3.56 3.65,-0.21 4.18,-8.66 0,-3.42 -15.65,0 -2.54,12.32 z m -23.09,-2.36 1.15,1.29 0,5.37 8.52,-2.46 0,-7.88 -8.32,-1.64 0,4.14 z m 1.15,6.66 0,-5.37 -3.08,-3.47 -2.73,2.57 z m 51.29,25.06 -2.94,-1.45 0,-5.36 -3.32,0 -0.67,2.36 -3.31,0.11 -0.86,-2.97 -5.26,0.04 0,11.73 -3,4.94 0.26,3.22 18.55,0 -3.03,-3.76 0,-4.19 3.7,0 z m -36.99,-29.19 -1.38,-8.44 -4.4,0 0,10.11 z m 20.08,6.32 2.38,7.68 -4.66,0 0,4.15 1.83,2.44 4.44,-2.03 4.67,-7.75 0.74,-5.78 -4.64,0 -0.45,1.29 z m 43.4,-21.29 2.75,4.35 1.05,-0.88 -6.97,-11.97 -3.6,8.5 z m -83.58,12.83 2.72,-2.57 -2.79,-3.14 -2.71,2.72 z m 87.06,-5.64 1.75,-1.26 -1.43,-2.46 -2.09,1.75 z m -12.94,39.06 0,2.58 2.26,1.51 0,3.22 -2.15,1.88 0,-3.77 -2.15,-1.76 -0.06,0.04 -4.06,2.83 4.06,2.66 0,3.72 -2.54,5.94 0,6.58 1.84,-0.03 0.12,-0.89 3.81,-2.66 -0.28,-8.01 8.94,-7.33 -0.89,-8.36 z m 14.69,-40.32 -1.75,1.26 1.78,2 7.09,2.51 -11.07,9.22 0,8.02 17.35,-20.18 -0.71,-3.54 -12.06,1.79 z m -44.21,69.48 6.66,0 0,-17.03 8.84,0 -1.15,-1.6 -20.96,0 z m 32.98,-58.29 -3.04,0.43 0.87,3.74 -0.43,3.17 -1.36,2.4 8.32,5.49 2.92,-3.41 0,-8.02 3.22,-2.69 -9.44,0 z m -3.96,9.74 -0.52,0.91 -2.99,0 0.77,-1.32 -1.36,0 -3.06,7.58 5.56,7.83 2.1,0 0,4.39 8.9,-1.85 -1.08,-12.05 z m -68.11,-47.5 -4.94,0 0,5.67 -1.82,2.76 -6.1,0 -0.22,6.37 7.5,5.39 0,-1.93 9.02,0 -0.86,-15.38 4.75,0 -7.33,-5.41 z m 62.77,50.17 1.24,-3.08 -2.64,0 -0.84,3.55 z m -1.82,4.5 1.82,-4.5 -2.24,0.47 -0.61,2.57 z m -72.13,-27.31 2.89,3.12 2.71,-2.72 2.79,3.14 1.93,2.18 1.35,-1.18 0,-4.14 -0.65,-2.95 -8.59,0 z m 14.62,-9.1 -9.02,0 0,1.93 2.04,4.62 3.38,0 0.65,2.95 4.16,0.82 0,-4.17 15.97,-6.47 0,-5.27 -13.29,-9.79 -4.75,0 z m 55.51,47.67 3.22,1.29 -1.12,2.25 -9.47,-4.67 0.12,4.67 -3.7,0 0,4.19 3.03,3.76 5.67,0 9.81,-6.83 0,-8.09 -1.23,-1.73 -5.36,0.81 z m -13.2,24.05 2.68,3.09 10.94,-7.33 -4.78,-6.72 -8.84,0 z m -41.1,-61.4 4.16,0.82 0,-2.23 4.4,0 5.11,-1.88 -4.88,-4.44 -8.79,3.56 z m 61.86,33.92 0,8.09 0.06,-0.04 2.15,1.76 0,3.77 2.15,-1.88 0,-3.22 -2.26,-1.51 0,-6.97 z m 14.31,-37.51 -2.75,-4.35 -6.77,0 -4.79,11.31 6.62,6.92 9.44,0 7.85,-6.53 -7.09,-2.51 -3.55,-3.97 z m -19.45,22.1 4,0 1.14,-1.99 2.96,0 0.43,-3.17 -0.87,-3.74 -5.73,0.8 z m -40.75,-34.42 0,5.27 -7.18,2.91 4.89,4.44 1.28,-0.47 0.49,-2.38 15.65,0 3.53,-7.24 -1.39,-9.53 -6.96,0 z m -33.47,-4.24 6.09,0 1.83,-2.76 0,-5.67 4.94,0 0,-3.439 -5.44,0 -7.34,9.559 z m -0.45,12.57 4.93,1.44 -4.98,0 -0.09,2.37 9.9,0 -2.04,-4.62 -7.5,-5.39 z m 4.93,1.44 -4.93,-1.44 -0.05,1.44 z m 47.64,-7.24 -3.52,7.24 2.91,6.18 -2.36,0 1.18,3.49 11.68,-5.52 0,-6.01 2.6,-2.56 0.26,-5.84 -10.14,-6.51 -3.99,0 z m 0.03,-23.68 -2.13,-2.582 -4.57,-1.097 -4.25,4.571 2.76,13.26 10.77,0 10.14,6.51 0.99,-22.44 -5.9,-0.8 -2.44,3.651 z m -40.15,5.038 0.86,0 0,-0.731 12.24,-6.681 0,-4.794 -9.02,0.94 -8.66,11.27 z m 13.1,-12.2 0,4.794 -12.24,6.681 0,1.64 20.61,15.2 10.31,-7 0.18,0 -5.03,-24.17 -5.92,-0.171 z m 13.83,-2.859 2.27,10.92 4.25,-4.571 -1.67,-0.4 0.21,-5.8 z m 27.36,95.92 5.93,8.32 4.6,0 2.54,-5.94 0,-3.72 -4.06,-2.66 -5.75,4 z m 2.72,22.66 2.36,0 1.4,-1.46 0,-1.87 -1.93,0 -1.83,1.18 z m 7.81,-8.37 -1.8,0 0,1.65 1.8,1.08 z m 4.84,-97.06 0.03,-0.084 -1.79,-2.917 -14.04,-1.908 -0.75,17.02 15.39,0 3.1,-1.77 -6.38,-10.96 3.49,2.845 z m 1.94,10.35 -3.1,1.77 -15.4,0 -0.49,11.25 -2.6,2.56 0,6.01 9.21,10.6 4.93,1.8 8.76,-1.23 -5.55,-5.81 4.79,-11.31 3.6,-8.5 z m -10.83,48.21 3.38,-14.22 -4.93,-1.8 -13.91,0.39 -1.13,8.84 -4.67,7.75 -4.44,2.03 1,1.33 5.26,-0.04 0.86,2.97 3.31,-0.11 0.67,-2.36 3.32,0 0,5.36 12.41,6.12 1.12,-2.25 -3.22,-1.29 0.97,-4.35 5.36,-0.81 z m -23.52,-16.81 3.01,4.24 4.66,0 0.39,-3.06 13.91,-0.39 -9.21,-10.6 -11.68,5.52 z m -16.79,-11.58 -4.36,1.6 1.43,8.59 0.88,-0.25 z m -4.36,1.6 -2.04,0.75 1.38,8.44 2.09,-0.6 z m -26.43,0.94 2.43,-2.55 -4.68,0 -0.01,0.11 z M 68.5,30.204 64.85,28.7 l -19.11,0.108 -7.73,3.114 0,3.436 -8.696,-0.107 -1.65,2.303 7.339,-0.264 -9.448,3.544 -4.565,6.185 3.921,-0.065 -7.517,4.939 2.748,0.215 14.39,-6.871 16.61,-0.58 5.046,5.047 1.906,-2.052 -1.665,-1.719 -1.878,0 -1.834,-2.102 15.79,-13.63 z m -12.49,31.96 -2.631,-2.148 -1.128,0.967 1.834,2.398 1.925,0 z m 100.8,3.325 -1.97,-3.138 -1.78,-0.425 0,-2.251 -5.73,5.814 z m -3,-36.32 -11.54,-4.713 -1.72,-0.018 -4.01,3.294 1.34,-3.314 -1.94,-0.015 -4.67,4.965 11.35,-0.617 6.93,6.201 -4.66,-0.08 -2.35,1.925 -5.29,0 0,1.512 5.37,0 4.55,3.763 1.24,-0.542 -1.08,-2.39 3.13,1.49 1.02,-0.443 0,-4.671 3.6,1.281 2.07,-1.381 -1.17,-2.185 -2.08,-0.758 z m -38.86,42.13 3.33,0 2.31,-1.582 7.46,0 3.22,-2.792 2.9,0 -1.05,3.304 5.15,-0.888 -3.38,1.61 0.32,1.397 9.18,-3.225 -4.48,-0.213 -2.09,-1.883 2.07,-3.21 -1.01,-0.964 -6.49,2.945 0,-1.691 6.21,-2.98 9.95,-0.429 7.48,-3.981 0.04,-1.817 -5.45,-0.944 -0.66,-8.91 -7.13,2.806 0.05,-4.192 -3.44,-2.926 -4.67,0 -12.63,18.38 -3.06,0.01 0.06,-6.045 -10.88,-5.905 10.88,-8.053 6.17,-1.126 -1.29,-1.908 9.5,-1.047 3.87,-4.026 -3.63,-0.402 -4.99,3.301 0.56,-2.818 -2.33,-0.242 -0.55,-3.405 -4.04,1.794 1.05,2.175 -5.4,2.576 -9.42,-1.771 -4.98,2.335 -12.09,-4.831 -23.11,0.483 -15.79,13.63 1.834,2.102 1.878,0 1.665,1.719 -1.906,2.052 -1.933,8.846 3.463,3.141 0,1.691 38.82,0 4.56,2.081 7.72,-1.639 0.97,3.423 1.56,1.152 2.62,-0.185 z m 13.93,-34.5 -2.96,2.407 5.85,0.619 0.62,-1.514 z m -11.42,-6.123 1.09,1.407 2.76,-1.407 -0.82,-1.306 z m 2.09,-4.726 1.76,1.784 3.78,-1.262 0.99,-2.642 z m 7.21,-1.062 0.48,1.691 5.15,-1.369 -1.04,-1.38 z m 13.13,-3.503 -2.82,-1.168 -2.74,2.335 11.11,0.875 2.9,-2.042 z m 27.05,-6.241 5.8,-3.273 -23.03,1.708 0,1.243 7.77,-0.161 -1.09,1.45 -8.05,0.16 1.05,1.853 -3.47,-0.564 1.37,1.771 -5.96,0 0.89,0.886 6.52,0 1.05,0.886 9.5,-4.429 z m -28.18,1.344 4.29,0.811 2.46,-1.575 -1.78,-1.329 z m -45.31,11.25 10.08,-3.429 -2.32,-1.075 -9.53,2.427 z m 11.38,-2.803 -5.431,1.847 3.201,1.348 -4.993,1.272 6.203,2.416 4.27,-1.853 4.75,1.128 3.56,-0.817 -3.48,-1.607 2.68,-3.46 -2.68,0 -1.61,2.082 -0.65,-2.082 -2.84,1.102 z m -7.867,84.83 4.947,0 3.99,2.66 -1.52,1.69 6.92,0 -8.27,-5.96 -4.376,0 z m 6.927,7.41 1.04,0.89 2.98,0 0,-1.05 -1.04,-1.05 -2.98,0 z m 18.35,-0.82 -0.61,1.01 1.67,0 0.61,-1.01 z m -36.79,4.32 -2.818,0 -1.338,2.38 3.99,2.01 2.703,-4.88 -0.524,-2.6 -2.415,0 z m 3.141,3.95 -0.485,1.71 0.726,0.33 6.665,-5.58 -8.032,0.08 -1.325,2.37 z m -0.485,1.71 0.485,-1.71 -2.451,-1.09 -0.856,1.53 z m 2.498,-11.09 -3.141,2.34 0.524,2.6 z m 0.764,14.84 4.345,0.46 -0.216,-9.46 -6.665,5.58 z m 7,26.34 3.555,1.7 6.34,-7.78 -6.46,-3.69 -3.065,3.86 z m 13.06,-27.54 -1.72,-0.01 -3.59,4.85 -1.83,0.12 0.52,1.76 -0.96,1.36 0.74,2.46 -0.7,4.59 -2.09,2.64 14.76,8.43 0,-9.46 3.43,-0.23 0,-7.51 -5.63,-0.58 -2.45,-2.71 z m 23.44,114.8 2.2,2.02 6.78,0.25 -7.32,-3.82 z m 10.42,-48.75 -2.96,1.8 -3.98,0 0,-3.54 -8.13,-5.5 -0.46,0.84 -6.78,0 -1.82,16.9 3.83,16.75 3.46,6.16 0.16,4.62 5.14,7.87 1.87,0.19 -0.97,-20.13 10.9,-4.72 -4.94,-6.88 0,-7.57 4.81,-4.94 z m 1.2,16.52 2.36,-4.09 -8.24,-5.64 0,7.57 z m -22.95,-79.89 -3.65,-2.6 -8.46,-0.08 0.48,5.71 2.45,2.71 5.63,0.58 0,7.51 0.9,-0.06 1.14,2.55 3.66,-1.18 -0.3,-3.96 4.9,-1.8 1.45,-7.16 -1.65,-1.58 z m -32.18,-1.48 2.893,3.91 1.044,0.37 1.466,-1.9 -1.027,-0.57 -0.031,-1.35 z m 45.48,8.56 -5.11,-4.86 -1.45,7.16 2.13,-0.78 -0.29,6.11 4.89,-0.55 -1.67,-4.28 z m -12.64,29.49 -4.99,1.41 0,11.41 3.76,7.58 6.78,0 2.64,-4.84 5.11,-0.03 -0.12,-3.82 -8.7,-7.11 z m 17.2,-22.89 3.28,-0.37 0.97,-2.75 -1.29,-2.83 -2.74,-0.23 z m -3.9,38.42 -5.11,0.03 -2.18,4 8.13,5.5 0,3.54 3.98,0 2.96,-1.8 -0.2,-2.8 -7.44,-3.97 z m -0.49,-37.94 4.39,-0.48 0.22,-6.18 -4.78,-0.42 -1.5,2.8 z m 20.55,6.13 -3.72,-1.61 -3.72,2.18 1.21,-3.26 -2.47,-1.07 -3.51,2.7 2.55,-3.76 -2.25,-4.91 -0.97,2.75 -12.56,1.4 0.29,-6.11 -2.13,0.78 -4.9,1.8 0.3,3.96 -3.66,1.18 -1.14,-2.55 -4.33,0.29 0,11.17 -4.4,0.54 -1.94,6.33 7.36,6.34 6.63,-1.87 4.48,4.6 8.7,7.11 0.26,8.32 7.44,3.97 0.33,4.65 -4.81,4.94 8.24,5.64 4.8,-8.37 1.13,-7.25 11.66,-5.16 2.17,-16.12 5.03,-6.58 0,-3.98 -8.23,-5.36 -8.05,-0.49 z m -57.62,-19.53 -1.366,1.14 -1.812,-1 -1.466,1.9 4.313,1.54 1.045,-1.56 2.47,0.24 0.72,2.38 0.96,-1.36 -0.45,-1.65 -0.54,-1.97 z m 12.21,25.01 4.4,-0.54 0,-1.71 -8.3,-4.74 -6.34,7.78 -3.555,-1.7 -0.114,1.82 10.8,18.39 9.33,6.25 0.84,-1.93 0,-11.41 -1.64,0.46 -7.36,-6.34 z m 12.83,64.85 -3.83,-16.75 1.82,-16.9 -3.76,-7.58 -0.84,1.93 1.57,38.25 4.13,3.34 0.19,6.86 7.16,9.26 2.32,0.24 -5.14,-7.87 -0.16,-4.62 z m -5,-107.2 -4.87,-0.54 0,2.69 1.63,-1.21 2.6,0 z m -4.87,1.49 0,-2.03 -3.04,0 0.99,1.4 -1.77,0 0,0.63 z m 319.7,17.33"
             id="path4291-4-7-5-9" />
          <path
             style="fill:#ffffff;fill-opacity:1;stroke:#4d4d4d"
             inkscape:connector-curvature="0"
             d="m 481.4,220 -1,3.2 7.3,-5.2 -2.1,-2.8 0,-3.2 -1.2,0.5 0,4.5 z m -19.2,10.5 15.2,-7.7 0,2 -11.7,7.7 z m -62.3,-39.5 12.8,-6 9.5,-10.5 5.2,2.3 2.3,-4.8 8.7,-0.2 -2.2,4 7.2,6.2 4.8,-4.8 0,-6.7 2.2,0.7 2.5,12 7.8,11 -0.8,8.3 -14.2,14.7 -12.3,-0.7 -1.5,-8.3 -4.2,1.8 -4,-3.5 -24.3,5.3 -1.5,-1.8 2,-4.8 z"
             id="path4293-58-0-6-6" />
        </g>
      </g>
    </g>
  </g>
</svg>
