<?xml version="1.0" encoding="UTF-8" standalone="no"?>
<!-- Created with Inkscape (http://www.inkscape.org/) -->

<svg
   xmlns:dc="http://purl.org/dc/elements/1.1/"
   xmlns:cc="http://creativecommons.org/ns#"
   xmlns:rdf="http://www.w3.org/1999/02/22-rdf-syntax-ns#"
   xmlns:svg="http://www.w3.org/2000/svg"
   xmlns="http://www.w3.org/2000/svg"
   xmlns:sodipodi="http://sodipodi.sourceforge.net/DTD/sodipodi-0.dtd"
   xmlns:inkscape="http://www.inkscape.org/namespaces/inkscape"
   width="169.33333mm"
   height="76.824036mm"
   version="1.1"
   viewBox="0 0 169.33333 76.824039"
   id="svg2"
   inkscape:version="0.91 r13725"
   sodipodi:docname="ossig_logo.svg">
  <defs
     id="defs24" />
  <sodipodi:namedview
     pagecolor="#ffffff"
     bordercolor="#666666"
     borderopacity="1"
     objecttolerance="10"
     gridtolerance="10"
     guidetolerance="10"
     inkscape:pageopacity="0"
     inkscape:pageshadow="2"
     inkscape:window-width="1248"
     inkscape:window-height="1388"
     id="namedview22"
     showgrid="false"
     fit-margin-top="0"
     fit-margin-left="0"
     fit-margin-right="0"
     fit-margin-bottom="0"
     inkscape:zoom="0.70710678"
     inkscape:cx="332.82477"
     inkscape:cy="-157.14847"
     inkscape:window-x="1312"
     inkscape:window-y="24"
     inkscape:window-maximized="0"
     inkscape:current-layer="svg2" />
  <metadata
     id="metadata4">
    <rdf:RDF>
      <cc:Work
         rdf:about="">
        <dc:format>image/svg+xml</dc:format>
        <dc:type
           rdf:resource="http://purl.org/dc/dcmitype/StillImage" />
        <dc:title></dc:title>
      </cc:Work>
    </rdf:RDF>
  </metadata>
  <g
     id="g4167"
     transform="scale(1.0357022,1.0357022)">
    <g
       transform="matrix(0.07581477,0,0,0.07581476,-0.87482587,-0.81971607)"
       id="g4161">
      <g
         style="fill:none;stroke:#f68212;stroke-width:104.76399994"
         id="g4149">
        <path
           inkscape:connector-curvature="0"
           d="m 111.387,308.135 0,-35.727 a 209.21,209.214 0 0 1 418.42,0 l 0,258.426"
           id="path4151" />
        <circle
           cx="320.004"
           cy="680.729"
           r="256.08301"
           id="circle4153" />
      </g>
      <circle
         style="fill:#f68212"
         cx="321.01001"
         cy="681.659"
         r="86.428703"
         id="circle4155" />
    </g>
    <g
       transform="matrix(0.17522648,0,0,0.17522648,46.0804,58.16541)"
       id="g4227">
      <g
         transform="matrix(6.4115836,0,0,6.4115836,-501.52001,-2282.0885)"
         aria-label="S"
         id="g4194">
        <path
           inkscape:connector-curvature="0"
           d="m 105.37,333.13 0,6.5833 q -2.5625,-1.1458 -5,-1.7292 -2.4375,-0.58333 -4.6042,-0.58333 -2.875,0 -4.25,0.79167 -1.375,0.79166 -1.375,2.4583 0,1.25 0.91667,1.9583 0.9375,0.6875 3.375,1.1875 l 3.4167,0.6875 q 5.1875,1.0417 7.375,3.1667 2.1875,2.125 2.1875,6.0417 0,5.1458 -3.0625,7.6667 -3.0417,2.5 -9.3125,2.5 -2.9583,0 -5.9375,-0.5625 -2.9792,-0.5625 -5.9583,-1.6667 l 0,-6.7708 q 2.9792,1.5833 5.75,2.3958 2.7917,0.79166 5.375,0.79166 2.625,0 4.0208,-0.875 1.3958,-0.875 1.3958,-2.5 0,-1.4583 -0.95833,-2.25 -0.9375,-0.79166 -3.7708,-1.4167 l -3.1042,-0.6875 q -4.6667,-1 -6.8333,-3.1875 -2.1458,-2.1875 -2.1458,-5.8958 0,-4.6458 3,-7.1458 3,-2.5 8.625,-2.5 2.5625,0 5.2708,0.39583 2.7083,0.375 5.6042,1.1458 z"
           style="fill:#ff7f2a"
           id="path4196" />
      </g>
      <g
         style="fill:#5fbcd3"
         transform="matrix(6.4115836,0,0,6.4115836,-831.83604,-2793.7454)"
         aria-label="SIG"
         id="g4198">
        <path
           inkscape:connector-curvature="0"
           d="m 184.58,414.48 0,6.1719 q -2.4023,-1.0742 -4.6875,-1.6211 -2.2852,-0.54688 -4.3164,-0.54688 -2.6953,0 -3.9844,0.74219 -1.2891,0.74219 -1.2891,2.3047 0,1.1719 0.85938,1.8359 0.8789,0.64453 3.1641,1.1133 l 3.2031,0.64453 q 4.8633,0.97656 6.9141,2.9688 2.0508,1.9922 2.0508,5.6641 0,4.8242 -2.8711,7.1875 -2.8516,2.3438 -8.7305,2.3438 -2.7734,0 -5.5664,-0.52734 -2.793,-0.52735 -5.5859,-1.5625 l 0,-6.3477 q 2.793,1.4844 5.3906,2.2461 2.6172,0.74218 5.0391,0.74218 2.4609,0 3.7695,-0.82031 1.3086,-0.82031 1.3086,-2.3438 0,-1.3672 -0.89843,-2.1094 -0.87891,-0.74219 -3.5352,-1.3281 l -2.9102,-0.64453 q -4.375,-0.9375 -6.4062,-2.9883 -2.0117,-2.0508 -2.0117,-5.5274 0,-4.3555 2.8125,-6.6992 2.8125,-2.3437 8.0859,-2.3438 2.4024,0 4.9414,0.37109 2.5391,0.35156 5.2539,1.0742 z"
           id="path4200" />
        <path
           inkscape:connector-curvature="0"
           d="m 193.11,413.56 7.5195,0 0,29.16 -7.5195,0 z"
           id="path4202" />
        <path
           inkscape:connector-curvature="0"
           d="m 234.25,440.55 q -2.8125,1.3672 -5.8398,2.0508 -3.0273,0.68359 -6.25,0.68359 -7.2852,0 -11.543,-4.0625 -4.2578,-4.082 -4.2578,-11.055 0,-7.0508 4.3359,-11.094 4.3359,-4.043 11.875,-4.043 2.9102,0 5.5664,0.54687 2.6758,0.54688 5.0391,1.6211 l 0,6.0352 q -2.4414,-1.3867 -4.8633,-2.0703 -2.4023,-0.6836 -4.8242,-0.6836 -4.4922,0 -6.9336,2.5195 -2.4219,2.5 -2.4219,7.168 0,4.6289 2.3438,7.1484 2.3438,2.5195 6.6602,2.5195 1.1719,0 2.168,-0.13672 1.0156,-0.15625 1.8164,-0.46875 l 0,-5.6641 -4.5898,0 0,-5.0391 11.719,0 z"
           id="path4204" />
      </g>
    </g>
  </g>
</svg>
