<svg xmlns="http://www.w3.org/2000/svg" viewBox="0 0 70.52 91.34"><defs><style>.cls-1{fill:#1f0055;}.cls-2{fill:#532178;}.cls-3{fill:#ffce3a;}</style></defs><title>layer1-5</title><g id="Layer_2" data-name="Layer 2"><g id="svg8"><g id="layer1-5"><path id="path1193-9" class="cls-1" d="M27.34,90.77c-.29-.76.48-1.21,2.12-1.21,1.2,0,1.35.09,1.35.89s-.13.89-1.63.89C28,91.34,27.5,91.18,27.34,90.77Zm12.19-.41c-.11-.35-.43-1.14-.7-1.76-.6-1.35-.64-2.15-.12-2.47.24-.15.11-.43-.36-.76a1.85,1.85,0,0,1-.74-1.3c0-1.35-.42-2.4-.94-2.4-.71,0-.61-1.33.14-1.75.5-.28.53-.44.18-.81-.67-.67-.55-2.29.29-3.94.62-1.21.89-1.43,1.61-1.29,1.23.24,1.09-.45-.38-1.88a3.05,3.05,0,0,1-1.26-2.78c0-1.4.19-1.74,1.75-3.26s1.71-1.7.72-1.55c-1.58.23-3.55-.26-3.8-.94A7.21,7.21,0,0,0,35,62c-.79-1-.86-2.85-.11-3.13s.75-5,.11-6.79A3.54,3.54,0,0,1,35,49.73c.3-1,.49-1.19,1.49-1.14.64,0,1.16-.13,1.18-.36s.09-1.13.17-2a51,51,0,0,0-.43-6.45A41.2,41.2,0,0,1,37,33.31c.18-1.36.1-1.68-.5-2.06s-.72-.83-.71-2.51a7.28,7.28,0,0,1,.27-2.42,9.82,9.82,0,0,1,2.13-1.25c2.13-1,2.36-1.43.81-1.43-.83,0-1.25-.27-1.81-1.16s-.71-1.55-.54-4c.44-6.32.65-7.76,1.14-7.95a1,1,0,0,0,.5-.87A.63.63,0,0,1,39,9c.41,0,.72.24.72.55s.36.72.81.94c1.28.62,2.85,2.73,3.54,4.73L44.73,17l-.21-3.31c-.17-2.75-.12-3.31.31-3.31a1.56,1.56,0,0,1,1,.43c.3.3.43.31.43,0s-.81-.67-1.79-1c-1.54-.51-1.79-.73-1.79-1.52a2.91,2.91,0,0,1,.62-1.64c.61-.68.61-.69-.18-.21-.44.28-.8.62-.8.77s-.44.28-1,.28a6,6,0,0,0-2.41.9c-1.57,1-3,1.16-3,.41a8.46,8.46,0,0,1,.85-2.15c.81-1.6.81-1.68.15-1.68s-.66-.21-.57-1c.15-1.38,1.36-1.59,1.36-.24,0,.54.12.86.27.72a2.79,2.79,0,0,0,.27-1.41c0-1,.13-1.13.9-1.13a1.79,1.79,0,0,0,1.28-.5c.29-.37.82-.43,2.06-.24s1.67.12,1.67-.13.53-.38,1.17-.38c.87,0,1.26.2,1.52.8s.81.89,2.26,1.15l1.9.33L50.8,4.28l-.11,1.27,2,.18a8.71,8.71,0,0,1,2.19.36c1.23,1.39,2.76,3.79,2.76,4.33,0,1-1.06.84-2.4-.46-.92-.89-1.28-1.05-1.61-.72-.7.7-1.72.52-1.72-.31,0-.4-.13-.65-.3-.55-.47.29,0,2.5.61,3a2.72,2.72,0,0,0,1.71.22c1.06-.17,1.26,0,2.79,2,1.78,2.42,2,3.68.92,4.38s-.86,1.35.72,1.35c1.3,0,1.43.09,1.43.92a3.35,3.35,0,0,0,1.34,2.14c1.32,1.19,1.36,1.31,1.75,4.9.22,2,.42,3,.45,2.16,0-1.26.16-1.52.75-1.52A1.71,1.71,0,0,1,65.36,29c.87,1.67.67,4.67-.3,4.67-.24,0-.62.44-.85,1a13.17,13.17,0,0,1-.77,1.52,5.85,5.85,0,0,0-.54,1.16,1.08,1.08,0,0,1-1.94,0c-.3-.52-.37-.5-.58.18-.68,2.14-5.22-.86-5.22-3.45,0-.61-.12-.64-1.26-.29s-1.18.42-.45.59a1.18,1.18,0,0,1,.93,1.08c.33,2.58.83,3.62,1.92,4s1.06.5.87,1.44-.11,1,.35.85a5.67,5.67,0,0,1,1.61-.22c.69,0,1-.18,1-.54a.54.54,0,0,1,.54-.53.53.53,0,0,0,.53-.53c0-.92,2.53-2.34,4.17-2.34h1.5l.25,1.86c.22,1.57.16,1.92-.41,2.34a1.8,1.8,0,0,1-1.3.33c-.55-.14-.62.13-.62,2.3,0,2.34,0,2.48-.9,2.7-.49.12-.89.36-.89.53a4.52,4.52,0,0,1-1.56,1.21c-1.68,1-4.75,1.26-5.52.5s-.82.9-.53,5.25l.26,3.94.5-3,.5-3,2.61-1.2c3.21-1.49,4.34-1.55,4.82-.29a6.67,6.67,0,0,1,.35,2c0,1.53.94,1.34,1.24-.26a6.88,6.88,0,0,1,.8-2.15c.51-.79.5-.84-.19-.84a1.13,1.13,0,0,1-.69-1.94c.34-.25.51-1,.49-2,0-1.41.06-1.63.77-1.73s.8.05.8,1,.16,1.09,1,1.18,1,.24,1.09,2c.08,1.36,0,1.88-.36,1.88s-.46.54-.46,1.7c0,1.4.12,1.74.71,1.9s.74.55.83,1.72c.12,1.65-.36,2.56-1.35,2.56A3.37,3.37,0,0,1,67,56c0-.68-.91-.5-1.65.32-.53.6-1,.72-2,.58S62,56.79,62,57.17s-.36.5-.9.5-.89.16-.89.36a.39.39,0,0,0,.42.36,2.13,2.13,0,0,1,1,.55c.52.47.87.49,2.27.14.91-.23,1.65-.56,1.65-.73s.41-.32.9-.32c1.09,0,1.23,1,.18,1.33s-.89.82.18.82c.71,0,.89.18.89.87a1.49,1.49,0,0,0,.36,1.1c.62.38.39,1.38-.72,3-.84,1.27-1,1.64-.53,1.73.91.2.61,1.83-.54,3a4.34,4.34,0,0,0-1.08,1.42c0,.2-.44.31-1,.25-.77-.09-1-.33-1.1-1.08s.06-1,.72-1.1.08-.26-1.14-.44a4.79,4.79,0,0,1-3.14-1.46c-.64-.64-1.16-1-1.16-.69a10.17,10.17,0,0,0,2.1,2.6l2.1,2.14-.23,2.55c-.14,1.5-.1,2.59.1,2.66.66.22-.17,2.11-1.62,3.68s-2.43,2-2.47,1.14c0-.24-.17-.08-.35.36-.33.81-2,1.82-2.34,1.44a3.28,3.28,0,0,1,.23-1.67c.44-1.47,1.48-2,1.88-1,.11.25.2.17.21-.21a2.13,2.13,0,0,1,.57-1.19,2.94,2.94,0,0,0,.53-1.76c0-1,.14-1.23.75-1.23s.69-.15.49-.81a5.47,5.47,0,0,0-1.06-1.7,5.1,5.1,0,0,1-1.05-2A5.28,5.28,0,0,0,57.35,70c-.54-.65-.9-.75-2.13-.58-1.9.25-2,1.09-.15,1.24,1.22.11,1.42.28,2.19,1.91s.82,1.85.29,2.77-.49,1,0,1c.64,0,.69,1.73.06,2.51-1.52,1.91-4,2.77-4.31,1.52-.12-.49-.17-.45-.2.15a1.16,1.16,0,0,1-.7,1c-.64.21-2.55,2-2.13,2a17.68,17.68,0,0,0,2.12-.89,12.33,12.33,0,0,1,2.37-.9c.74,0,.5,1.77-.36,2.63a2.16,2.16,0,0,0-.7,2c.12,1.15.11,1.15-1.52,1.15-1.21,0-1.63-.14-1.63-.53a.54.54,0,0,0-.54-.54c-.3,0-.54.16-.54.36A7.06,7.06,0,0,1,48,88.53C46.6,90,46.44,90,44.32,90.05a5.44,5.44,0,0,0-2.7.48c-.68.66-1.85.56-2.09-.17Zm6-2.6.9-.7h-.81c-1.29,0-1-1.26.36-1.71C47,85,47,85,46.19,84.93a2.37,2.37,0,0,1-1.34-.46c-.33-.34-.65-.27-1.39.29-1.25.93-1.45,1.57-.5,1.57.56,0,.82.29,1,1.07.26,1.26.38,1.29,1.56.36Zm4.46-12a2.68,2.68,0,0,1,1.33-.53c1.35,0,1.95-3,.66-3.32-.57-.15-.72,0-.72.66s-.13.86-1.8.82a7.42,7.42,0,0,0-1.93.1c-.27.27,1,2.82,1.35,2.81A2.7,2.7,0,0,0,50,75.75ZM42.17,75a.72.72,0,0,0-.68,0c-.29.11-.21.2.21.22s.59-.07.47-.19ZM55,63.26v-3l-1,.85c-1.62,1.36-4.14,1-6.83-1.09-1.44-1.1-1.65-1.17-2.31-.7a18,18,0,0,0-3.1,4.08c-.26.44-.23.46.19.12a17.06,17.06,0,0,1,5.21-1.91c1.29,0,5.79,2.42,6.64,3.57a4,4,0,0,0,1,1.09,10.8,10.8,0,0,0,.21-3Zm10.31,0a1.93,1.93,0,0,0,.28-1.43c-.18-.5-.39-.29-1,1-.43.89-1,1.63-1.15,1.63a.37.37,0,0,0-.37.36c0,.52,1.64-.61,2.26-1.55Zm-5,.56-.69-1.09a3,3,0,0,0-.22,1c-.14,1,0,1.1.68,1.1S60.9,64.82,60.3,63.85ZM40.49,59c.83-1.84.87-2.41.17-2.41-.3,0-.54-.32-.54-.72s.24-.72.9-.72.89-.18.9-.8c0-1.75.4-2.42,1.41-2.42,1.41,0,4.22,1.58,6.23,3.52,1.64,1.58,1.71,1.61,1.17.53a7.39,7.39,0,0,1,.17-6c1-1.82,1.61-2.32,3.06-2.32a2.14,2.14,0,0,0,1.35-.31,5.12,5.12,0,0,1,2-.52c2.45-.29,3.55-1,3.55-2.4,0-1.11-.6-1.45-.94-.55s-3.17,2-4.86,2a5.46,5.46,0,0,0-2.33.34,4.3,4.3,0,0,1-1.7.42c-.9,0-.92-.06-.92-2.42,0-3.42-.59-6.54-1.43-7.68A4.17,4.17,0,0,1,48,34.36c0-.62-.27-2.81-.6-4.86-.51-3.13-.53-3.94-.15-5,.62-1.71.32-1.85-1.07-.53a4,4,0,0,1-1.65,1.1c-.4,0-.39.19.06,1.06a4,4,0,0,0,1.08,1.36c.35.19.67,1.34.93,3.33a23.93,23.93,0,0,0,.69,3.75,48.66,48.66,0,0,1,2,8.61A9.68,9.68,0,0,1,49,47c-.3,1-.38,1.71-.19,1.71s.3.52.24,1.16c-.1,1-.26,1.18-1.26,1.27a5.69,5.69,0,0,1-2.86-.8,8.81,8.81,0,0,0-2.18-.92c-.88,0-1.31-1.66-.84-3.22s1.45-1.92,2.35-.64c.69,1,.7.67.17-3.18-.5-3.56-1-4.57-1-2,0,1,.15,1.88.35,1.88s.36.42.36.94c0,.8-.13.91-.88.77a1.59,1.59,0,0,0-1.61.67A2.48,2.48,0,0,1,40,45.5h-.81l.81.62c.75.58.79.8.59,3.66a32.33,32.33,0,0,1-.92,5.5,9,9,0,0,0-.47,3.85,3.52,3.52,0,0,0,.4,1.4A5.6,5.6,0,0,0,40.49,59ZM68.05,49c0-.65-.07-.7-.35-.26-.45.69-.45,1.07,0,1.07.2,0,.36-.36.35-.81Zm-.47-2.14c-.1-.25-.18-.05-.18.44s.08.7.18.45A1.36,1.36,0,0,0,67.58,46.84ZM43,36.18c-.33-1.37-.59-1.8-1-1.72-1,.19-.93,1.94.13,3,.52.52,1,.85,1.14.75a5.14,5.14,0,0,0-.24-2ZM60.07,31.1c-.12-.29-.2-.2-.22.21s.07.59.19.47A.71.71,0,0,0,60.07,31.1Zm-5.24-4.62A4.7,4.7,0,0,1,57,25.25c1-.19,1.24-.38,1.1-.9-.28-1.09-1-1.07-2.1,0s-2.07,1.35-2.49.68c-.15-.25-.38-.26-.65,0a3.74,3.74,0,0,1-1.46.46,1.27,1.27,0,0,0-1.31,1.08,1.87,1.87,0,0,0,0,1.17,5.17,5.17,0,0,0,2,0,4.05,4.05,0,0,0,2.74-1.23Zm4.63-.34c-.58-1.08-.82-.66-.32.59.22.57.48.84.57.6a1.87,1.87,0,0,0-.25-1.19Zm-6.8-5.71c0-.19-.24-.26-.54-.14s-.54.27-.54.35.24.14.54.14S52.66,20.62,52.66,20.43Zm-5.73-1.09c0-.19-.53-.34-1.17-.32-1.1,0-1.12.05-.27.32,1.27.41,1.44.41,1.44,0ZM49.39,19a1.75,1.75,0,0,0-1.27-.51c-.7.27.25,1.15,1.26,1.17h.85Zm-7.51-.82c-.44-.82-1-.73-1.64.27-.44.68-.4.71.77.57s1.2-.22.87-.84ZM53.73,16.9a2.74,2.74,0,0,0-.52-1,3,3,0,0,1-.54-1.52c0-.7-.11-.76-.72-.43s-.71.38,0,1.08a2.45,2.45,0,0,1,.71,1.43c0,.4.24.71.53.71S53.73,17.06,53.73,16.9Zm-4.59-11c-.12-1.1-.29-1.27-1.42-1.48s-2.24.09-2.5.87c-.09.24.21.42.69.42a9.2,9.2,0,0,1,3.36,1.39s-.05-.52-.13-1.2ZM40.84,3a2.27,2.27,0,0,0-.55-.53s-.19.24-.3.53,0,.54.54.54S41.21,3.49,40.84,3ZM25.43,90.09c0-.3.32-.54.72-.54s.72.24.72.54-.32.54-.72.54S25.43,90.39,25.43,90.09Zm-2-1.41a1.26,1.26,0,0,0-1.17-.56c-1.34,0-2.55-1-2.55-2,0-.73-.17-.88-1-.88-.6,0-1.13.23-1.25.54-.27.71-1.11.68-3.33-.14-3-1.1-6.57-4.4-6.57-6.1,0-.62.23-.74,1.3-.74h1.3l-.24-1.53C9.6,75.53,8.6,74.14,8.6,75.5c0,.44-.16.8-.36.8s-.36.32-.36.71c0,.93-.73.92-1.92,0-1-.81-1.28-2.12-.41-2.12.3,0,.54-.16.54-.36s.37-.44.82-.55.81-.46.8-1.17.12-1,1.07-.9a18.53,18.53,0,0,1,2.17.3c.75.16,1.23.07,1.52-.29s.2-.55-1-.72c-1.82-.24-3.19-1.46-3.19-2.82,0-.56.19-1,.41-1s.18-.26-.18-.65a2.55,2.55,0,0,1-.6-1.34,4.24,4.24,0,0,0-.53-1.59c-.48-.84-.51-.73-.52,1.7s0,2.6-.91,2.6c-.49,0-.89-.14-.89-.32s-.28-.42-.61-.55c-.55-.21-.54-.16,0,.48A2.94,2.94,0,0,0,6,68.49c.83.09,1,.28,1,1.61.13,1.74-.79,3-2.22,3s-2-.38-2-1.4A2.78,2.78,0,0,0,2,69.85C.69,68.65.71,66.73,2,66.41c.87-.22.93-.35.76-1.82A4.86,4.86,0,0,0,2,62.38C.8,61,1.56,59.85,3.23,60.47c1.06.39,2.86-.24,2.86-1,0-.38-.41-.57-1.31-.61-1.68-.09-2.22-.61-1.63-1.56.26-.42.29-.7.08-.7a.36.36,0,0,0-.36.36c0,.77-1.29.3-1.69-.63A51.94,51.94,0,0,1,0,48c0-.2.56-.37,1.25-.37.92,0,1.26-.15,1.26-.58s-.1-.5-.54-.14C1.2,47.57.36,47.09.36,46c0-.82.12-.93.89-.78s.9,0,.9-.7.16-.85.8-.75.89.47,1.21,1.9c.37,1.67.42,1.72.66.81.15-.54.5-1,.77-1s.5-.34.5-.75c0-.71.13-.74,2.24-.52,1.23.13,2.72.31,3.31.39s.87.07.63,0-.45-.77-.45-1.45c0-1.2,0-1.25-1.05-1-.83.19-1.13.08-1.44-.5a1.35,1.35,0,0,0-.92-.74c-.33,0-.53-.35-.53-.9s.21-.9.5-.9.6-.4.72-.89.45-.9.73-.9.61-.32.74-.71c.25-.81.48-.84,2.5-.37,1.73.4,2.38,0,1.5-1a2.24,2.24,0,0,1-.6-1.08.49.49,0,0,0-.54-.42.54.54,0,0,1-.53-.54.54.54,0,0,0-.54-.53c-.3,0-.54.16-.54.36s-.48.35-1.07.35-1.08.18-1.08.53c0,.6-1.5,1.09-2.33.78S6,32.52,5.86,28.33s.1-5,1.17-5c.33,0,.49.44.49,1.33a3.07,3.07,0,0,0,1,2.32l.95,1-.92,1.71c-.84,1.57-.87,1.77-.37,2.51.78,1.15,1,1,.88-.54a8.27,8.27,0,0,1,.62-3.24,11.07,11.07,0,0,0,.75-2.59c0-.39.14-.71.31-.71s.29-.6.27-1.34c0-1.27,0-1.34,1-1.29A10.11,10.11,0,0,0,14.77,22a8,8,0,0,1,2.53-.42,3,3,0,0,0,2-.87,3.65,3.65,0,0,1,2.53-1c1.8,0,2.15-.83.7-1.69a2.92,2.92,0,0,1-1.28-1.44,1,1,0,0,0-.88-.81c-.56,0-.69-.28-.72-1.7l0-1.7L19.33,14a9.2,9.2,0,0,1-.51,2.06c-.13.21.18.56.68.79,1.16.53,1.2,1.71.09,2.75-.65.61-1.27.78-2.83.78-1.77,0-2-.09-2.2-.81a9,9,0,0,1,.65-4c.22-.62.16-.61-.49.13A3,3,0,0,0,14,17.05c0,.28-.31.5-.69.5s-.73-.29-.82-1l-.12-1-.83,1.35c-.46.73-1,1.34-1.12,1.34s-.21.32-.11.72a1.44,1.44,0,0,1-1.37,1.79c-.53,0-.67-.27-.67-1.26,0-.77.17-1.25.45-1.25s.66-.67.92-1.5c.91-2.92,3.63-5.61,3.65-3.61,0,.43.24.26.75-.53,1-1.59,2.11-1.58,2.11,0a3,3,0,0,1-.45,1.67c-.36.39-.36.43,0,.23.7-.39,1.62-2.4,1.7-3.68a4.85,4.85,0,0,1,.62-2,7.14,7.14,0,0,0,.8-2,2.63,2.63,0,0,1,.85-1.5c.35-.21.41-.36.15-.36s-.45-.34-.45-.73c0-.56.24-.72,1.08-.72s1.07.18,1.07.54c0,.86.91.62,1.45-.39C23.85,2,25.43,1,26.76,1.2c.84.13,1.18.05,1.18-.29,0-.56.78-.91,2-.91.78,0,.87.12.69.87s-.08.89.58,1a1.62,1.62,0,0,1,1.14.86,2.47,2.47,0,0,0,1.43,1.07c1,.29,1.12.5,1.22,1.85.11,1.62-.15,1.82-1.45,1.12-.54-.29-.38.06.56,1.2a5.76,5.76,0,0,1,1.31,2.4c0,.73-.12.77-1.7.58-1.08-.13-1.44-.09-1,.11.64.27.71.68.76,4.39A57.19,57.19,0,0,0,34.19,23a15.88,15.88,0,0,1,.38,3.85c-.37.61-2.45.39-3.41-.35a3.08,3.08,0,0,0-3.78-.07,5.45,5.45,0,0,1-1.34.89c-.78.3-.47,1,.45,1a1,1,0,0,0,.84-.72c.25-1,1.68-1,1.68,0a1,1,0,0,1-.55.94c-.49.19-.49.3,0,1A3.42,3.42,0,0,1,29,31.15c0,.43.24.73.58.73s.5-.17.3-.63a5.85,5.85,0,0,1-.31-1.88c0-1.24,0-1.25,1.53-1.25s1.58.06,2.07,1.43c.57,1.57,1.11,10.93.71,12.49-.15.62-.47,1-.94,1-.89,0-1,1.56-.17,3.45.65,1.58.68,2.51.08,2.89-.89.55-1.78,4.36-1.52,6.45.4,3.22-1,4-4.25,2.59a19.66,19.66,0,0,0-4.58-1.06,11.68,11.68,0,0,1-3.28-.68c-.47-.47-.13-4.51.45-5.2.79-1,3-.72,4.26.46s1.6.83,1.11-1.25a17,17,0,0,1-.33-2.9c0-1.32.2-1.7,1.58-3,2.52-2.45,3.9-5.08,4-7.63a31.3,31.3,0,0,1,.3-3.4c.12-.69.12-1.05,0-.8a.87.87,0,0,1-.71.44c-.39,0-.45.36-.29,1.56a4.4,4.4,0,0,1-.24,2.42c-.71,1.37-6.55,10.14-7,10.47-.25.2-.22.35.08.48a1,1,0,0,1,.45.84c0,.51-.37.72-1.59.91-1.8.27-2.35,0-2.35-.91,0-.47.3-.71,1-.79l1-.12-1.08-.53c-1.36-.69-1.53-1.79-.54-3.48.61-1,.64-1.2.15-.79a5.35,5.35,0,0,0-1.13,1.76C17.6,47,16.51,48,15.33,48A1.23,1.23,0,0,1,14,47.19c-.26-.65-.33-.68-.34-.15s-.34.64-2.45.6c-4.14-.09-4.07-.11-3.82.87.36,1.45-.12,2.36-1.27,2.36a1.3,1.3,0,0,1-1.27-.63c-.23-.54-.31-.5-.54.27C3.81,52.06,3.9,52.3,5,52.3a8.51,8.51,0,0,1,3.22,1.42c2.06,1.33,2.21,1.52,2.22,2.78a25.84,25.84,0,0,0,.83,4.44c.77,3,.84,3.07,1.51,2.57.51-.38,1.21-.47,2.64-.3a13.77,13.77,0,0,0,3.8-.2c1.74-.39,1.95-.36,3.45.53a26.32,26.32,0,0,0,3.55,1.62c1.07.37,2.22.79,2.57.93,1.26.51.62-.78-.72-1.47-.74-.37-2.05-1.15-2.92-1.72-1.46-1-1.9-1-6.09-1.26-5-.26-6.61-.83-7-2.51a4.34,4.34,0,0,0-.78-1.53c-.42-.47-.52-1.26-.42-3.42.12-2.65.09-2.77-.46-2.09s-.71.66-1.52.29c-1.17-.53-1.19-1.29-.06-2.43s2.7-1.19,2.7-.09c0,.74,0,.75.48.13s.75-.6,1.7-.41l2.66.49,1.43.26v2.15a21.09,21.09,0,0,1-.3,3.46c-.25,1.1-.17,1.43.5,2.09s1,.77,3.16.49c4.13-.51,5.29-.4,6.4.64a12.24,12.24,0,0,0,2.45,1.67,7.49,7.49,0,0,1,2,1.33,3.7,3.7,0,0,0,1.32.91A1.19,1.19,0,0,1,34,64.38c0,1.78-.39,2.6-1.21,2.61a7.24,7.24,0,0,0-1.57.22c-.66.18-.73.32-.4.73s.32.83,0,1.87c-.52,1.75-.52,2.08,0,1.55a2.41,2.41,0,0,1,2.72,0,1.38,1.38,0,0,1-.36,2.28c-.48.15-.84.09-.92-.16a.89.89,0,0,0-.81-.41,1.24,1.24,0,0,1-1-.55c-.24-.44-.5-.48-1.27-.19-1.05.4-1.18,1-.54,2.34a1.35,1.35,0,0,0,1.41.91,6.57,6.57,0,0,1,1.91.35c.78.3.92.57.92,1.79s.08,1.44.91,1.44.91.1.81,1.53c-.08,1.17-.29,1.6-.92,1.87a1.3,1.3,0,0,0-.8,1.17c0,.45-.22.81-.5.81-.8,0-1.39-1-1.15-2,.18-.73.12-.85-.37-.66-.74.28-1.56-.77-1.56-2,0-.79-.12-.69-.86.69s-1.12,1.67-2.15,1.91c-.72.17-1.29.53-1.29.81a1.43,1.43,0,0,1-.72.94c-1,.63-1,2.43,0,2.43.62,0,.72.19.63,1.16-.12,1.26-1.2,1.83-1.58.83ZM21.85,84.9c0-.2-.4-.36-.89-.36s-.9.16-.9.36.4.35.9.35S21.85,85.09,21.85,84.9Zm-6.09-.52c0-.38-.69-.54-.89-.21s0,.37.33.37.56-.07.56-.16Zm2.53-4.63A6.71,6.71,0,0,1,18.21,74c.6-1.68.71-1.78,2.4-2.18,2.12-.49,6.4-2.4,6.79-3s-.5-1-1.65-.6c-.61.23-1,.66-1,1a.6.6,0,0,1-.54.64c-.3,0-.54-.16-.54-.36s-.65-.36-1.44-.36c-1.64,0-2.11-.61-1.49-2,.47-1,.1-1.22-1.81-1-1,.13-1.35.33-1.35.82,0,.78-1.29,1.77-2.32,1.78-.55,0-.61.08-.22.32a1,1,0,0,1,.28,1.16l-.21.84.69-.83a1.55,1.55,0,0,1,2.74,1.41,4.65,4.65,0,0,1-.94,1.66,2.89,2.89,0,0,0-.73,1.71,5.51,5.51,0,0,1-.56,2c-.54,1-.53,1.09.17,1.28s.74.47.74,1.94c0,1.68,0,1.75-1,1.75a2.34,2.34,0,0,1-1.43-.43c-.48-.47-.55-.28-.21.58.14.37.48.49,1,.37a4,4,0,0,1,2,.33l1.25.53.11-1.07a6,6,0,0,0-.63-2.59Zm-5.75,1.92a.37.37,0,0,0-.38-.36c-.21,0-.28.16-.16.36s.29.36.38.36S12.54,81.87,12.54,81.67Zm9.36-1.15c.23-.44.14-.7-.31-1s-.63-.18-.57.79c.09,1.69.15,1.9.37,1.31.11-.29.34-.81.51-1.15Zm-8.47-1.8c-.26-.84-.63-1.93-.82-2.42l-.35-.9-.26,1c-.32,1.23.39,3.42,1.18,3.63a3.56,3.56,0,0,1,.67.2,13.61,13.61,0,0,0-.42-1.48ZM22.2,40.44a7.14,7.14,0,0,0,1.08-2.67c0-.65.35-1.1,1.26-1.64,1.9-1.12,1.7-1.4-1.39-2-1.53-.27-3.81-2-3.81-3,0-.49-.4-.59-2.32-.59-2.18,0-2.33.05-2.33.8,0,.47-.22.81-.53.81s-.45.2-.35.45.76.4,2,.32,1.78,0,1.78.36.53.7,1.17,1c1.9.77,2.21,1,2.68,1.89.67,1.31.54,2.89-.38,4.71C19.92,43.09,20.78,42.74,22.2,40.44Zm-8.48-.32c.13-.53,0-.72-.5-.72a.63.63,0,0,0-.68.72c0,.39.22.72.49.72S13.61,40.51,13.72,40.12Zm2.76,0a.36.36,0,1,0-.36.36A.36.36,0,0,0,16.48,40.12ZM12,30.25c.12-.32.06-.46-.14-.34a.75.75,0,0,0-.36.56c0,.51.26.4.5-.22Zm9.58-4.91c.39-.73.37-.76-.17-.31a1.57,1.57,0,0,0-.59.8c0,.55.31.35.76-.49Zm2.79-2.28c.08-.08-.18-.13-.59-.13a1.06,1.06,0,0,0-.95.54c-.17.46-.08.48.59.13A9.52,9.52,0,0,0,24.33,23.06Zm2.1-1.48c2.38-1.78,2.94-2.36,2.94-3a.6.6,0,0,0-.53-.65c-.66,0-.74-1.66-.09-1.88.3-.1.13-.56-.54-1.44-1.5-2-1.33-2.57.89-3.21L31,10.83H29c-2,0-4.66.53-3,.61.89,0,1.15,1.11.27,1.11a.64.64,0,0,0-.54.71c0,.4.13.72.29.72a3,3,0,0,1,1.08.73c1.49,1.39.84,4.34-1.36,6.19-1,.82-1.42,1.68-.88,1.68a8.55,8.55,0,0,0,1.52-1ZM21.94,11.23a1.14,1.14,0,0,1-.48-1c0-.43-.11-.57-.21-.32-.26.65.14,1.52.68,1.48.36,0,.36-.06,0-.2Zm5.41-6c-.11-.29-.25-.53-.31-.53s-.19.24-.3.53,0,.54.3.54S27.48,5.52,27.35,5.19ZM29,2.29c0-.08-.25-.14-.54-.14s-.54.16-.54.35.24.25.54.14S29,2.37,29,2.29Zm.35,86.19c0-.62-.24-.72-1.75-.72-2,0-2.31-.37-2-2.54a3.38,3.38,0,0,1,2.79-2.83c.63,0,1.28,1.35,1.28,2.65,0,.79.08.81,1.85.53,2.2-.35,2.45-.23,2.45,1.12,0,1.12-.27,1.38-2.15,2s-2.51.57-2.51-.26ZM62.69,75.22c0-.55.24-.71,1.07-.71s1.08.16,1.08.71-.24.72-1.08.72S62.69,75.78,62.69,75.22ZM35.82,72a.64.64,0,0,1,.72-.72.72.72,0,0,1,0,1.44A.64.64,0,0,1,35.82,72Zm-1.65-1.23c-.33-.85.13-1.7.84-1.57.4.08.63.45.63,1C35.64,71.23,34.51,71.66,34.17,70.77Zm1.29-5.58a.72.72,0,1,1,.72.72A.63.63,0,0,1,35.46,65.19ZM0,64.12a.64.64,0,0,1,.72-.72.72.72,0,0,1,0,1.44A.64.64,0,0,1,0,64.12Zm3.22-22.3c0-1.24.16-1.6.8-1.88a2.6,2.6,0,0,0,1.16-1.79c.45-1.75.81-2.33,1.42-2.33.3,0,.54.76.69,2.24a26.45,26.45,0,0,0,.46,3.1c.22.79.16.84-.8.64-.57-.12-.84-.13-.59,0a1,1,0,0,1,.45.88c0,.58-.27.68-1.79.68H3.22Zm8.6-22.45c0-.51.23-.74.74-.74.92,0,.82,1.18-.12,1.36-.43.08-.62-.11-.62-.62Zm48.72-.17c0-.27-.41-.6-.9-.72-1.5-.38-1-2.72.57-2.72.85,0,1.28.67,1.57,2.42.23,1.38.19,1.52-.49,1.52C60.87,19.7,60.54,19.48,60.54,19.2ZM58.65,14c-.94-1.1-.81-2.15.26-2.15s1.63.89,1.63,2.13c0,1-1.08,1-1.89,0ZM15.13,10.51c-.24-.1-.44-.71-.44-1.36A2.29,2.29,0,0,1,15.92,7C18.3,5.21,19,6.32,17.36,9.19,16.48,10.68,16.11,10.9,15.13,10.51Z"/><path id="path1096-22" class="cls-2" d="M28.56,90.31c0-.34.34-.54.89-.54s.9.2.9.54-.34.54-.9.54S28.56,90.64,28.56,90.31Zm11.82-1.57a1.27,1.27,0,0,1-1-1.22c-.1-.84,0-1,.82-1a1.26,1.26,0,0,1,1.14.55c.18.47.26.47.65-.06.67-.91,1.62-.37,1.62.93,0,1-.1,1.08-1.16,1a11.15,11.15,0,0,1-2.06-.28Zm5.73-.19a1.47,1.47,0,0,1,.72-1,1.46,1.46,0,0,0,.71-.9.51.51,0,0,1,.54-.45.54.54,0,0,1,.54.54.52.52,0,0,1-.51.53c-.29,0-.57.37-.63.81-.13.92-1.37,1.35-1.37.48Zm-15.93-1a11.16,11.16,0,0,1,.3-1.21s.81-.15,1.75-.29c1.29-.18,1.7-.13,1.7.23,0,.73-.43,1.13-1.89,1.81-1.91.88-2.15.82-1.86-.54ZM20.92,87c-.64-.64-.17-1.2,1-1.2,1,0,1.26.14,1.26.72s-.24.71-1,.71A2.52,2.52,0,0,1,20.92,87Zm5.73,0a3.08,3.08,0,0,1-.24-1.42A2.68,2.68,0,0,1,28.63,83c.55,0,.64.31.64,2.14v2.15H28.08A3.11,3.11,0,0,1,26.65,87ZM16,85.29a.54.54,0,0,1,.54-.53.54.54,0,1,1-.54.53Zm23.71.09c-.51-.24-.77-.63-.68-1a1.7,1.7,0,0,0-.33-1.25,3.27,3.27,0,0,1-.49-1.66c0-.94.07-1,1.79-1,1.29,0,1.79.16,1.79.52,0,.71.59.62,1.15-.18a5.72,5.72,0,0,1,4.6-2.12c1.3.12,1.46,0,1.66-.77a2.44,2.44,0,0,1,2.31-2.16c1.16,0,1.57-.61,1.84-2.74.15-1.22.07-1.52-.44-1.66s-1.32-2.29-.93-2.69,1.31.37,1.51,1.35.28,1.07,1.6.86c1-.16,1.39-.1,1.39.21a5.76,5.76,0,0,0,.57,1.64c.83,1.75.55,2.32-1.74,3.68-1.37.82-2.06,1.45-2.06,1.92a3.83,3.83,0,0,1-1.78,3,5.11,5.11,0,0,0-1.7,1.51l-1,1.27-2.55-.21c-2.48-.21-2.58-.19-3.57.85s-1.65,1.25-3,.61ZM49,85.2c0-.65,3.85-2.61,5.12-2.6s.42,1.23-1.55,2.23C50.25,86,49,86.12,49,85.2ZM20.4,83.48c-1-.71-1.07-2-.08-2,.4,0,.72.24.72.54,0,.76.63.67,1.15-.18S23.26,81,24,81.83s.76,1.71,0,2a4.72,4.72,0,0,1-3.65-.34ZM10,82c-1.72-1.83-2-3-.69-3,.59,0,1.05.4,1.61,1.38a8.72,8.72,0,0,0,1.32,1.84,1.51,1.51,0,0,1,.54.94C12.8,84.14,11.53,83.59,10,82Zm3.37,1.44c-.43-.43-.24-1.55.26-1.55s.94.73.94,1.46c0,.38-.84.45-1.2.09ZM32.5,81.71c0-.35-.35-.54-1-.54-1,0-1-.13-1.43-2-.67-3.32-.63-3.46.94-3.17s1.86.65,1.87,2.43c0,1.19.11,1.34.9,1.34,1,0,1.16.64.53,1.82C33.84,82.37,32.5,82.49,32.5,81.71Zm-8.72-1c-.8-1.49-2.45-2.55-3-2a1.5,1.5,0,0,0-.42.88c0,.72-1,.56-1.42-.22s-.47-3.76,0-5.46c.33-1.2.51-1.34,2.23-1.74a10.67,10.67,0,0,0,2.23-.71,9.7,9.7,0,0,1,1.71-.7c1.7-.55,3.51-2,3.26-2.69-.34-.89-1.26-.93-3.56-.15-2.85,1-3.44.77-3.3-1l.1-1.35-1.89-.11c-1.85-.1-1.9-.08-2.41,1.14a2.1,2.1,0,0,1-1.63,1.49c-2.87.63-7.14-1.33-7.14-3.27a3.94,3.94,0,0,0-.69-1.9A4.26,4.26,0,0,1,7,59.06c.26-.74.22-1.12-.14-1.46-.6-.55-.68-4.37-.1-4.37a7.72,7.72,0,0,1,2,1.14c1.43,1,1.58,1.27,1.58,2.63a13.81,13.81,0,0,0,.53,3.25,14.13,14.13,0,0,1,.54,3.46c0,.94.1,1.7.22,1.7s.52-.38.89-.85c.8-1,2.35-1.49,3-.93.35.29,1.24.28,3.3,0,2.74-.42,2.85-.4,4.23.46a21.35,21.35,0,0,0,3.78,1.68c2.92,1,4.66,2.55,4,3.63a3.25,3.25,0,0,0-.44,1.43c0,.53-.31.79-1.12.95-1.1.22-1.11.25-.87,1.88.68,4.78.67,5.29-.18,6.8-.76,1.35-.95,1.47-2.29,1.47s-1.54-.14-2.11-1.19Zm-8.85-.27c-1.29-2.41-1.68-7.12-.59-7.15.23,0,.86-.73,1.4-1.61.64-1,1.22-1.6,1.7-1.6,1,0,.95,1.35-.17,2.87a2.61,2.61,0,0,0-.69,1.86A3,3,0,0,1,16,76.67l-.76,1.22.73.51A3,3,0,0,1,17,80c.21,1,.15,1.13-.7,1.13a1.49,1.49,0,0,1-1.33-.74Zm44.43-.54c0-1,1.2-2.66,1.87-2.66.87,0,.82,1.11-.1,2.28s-1.77,1.25-1.77.38ZM38.07,79.3c-1.14-1.62-.34-4.93,1.19-4.93a2.76,2.76,0,0,1,1.43.75,1.31,1.31,0,0,0,1.81.34,6.35,6.35,0,0,0,2-1.86c.57-.79,1.38-1.87,1.81-2.39.76-.94.78-.95,1.52-.28.94.86,1,1.66,0,1.9s-.9.7,0,2.66a8.09,8.09,0,0,1,.72,2.24c0,.58-.18.64-1.38.45s-1.81,0-3.49.84c-2.65,1.34-4.85,1.45-5.67.28ZM54,79.53c0-.78,2.06-2.65,2.9-2.65a.61.61,0,0,1,.68.62c0,.8-.32,1.24-1.42,2s-2.16.78-2.16,0Zm-43-.68a.54.54,0,1,1,.53.53A.54.54,0,0,1,11,78.85Zm-.36-2.64a6.51,6.51,0,0,0-1.08-1.66C8.18,72.79,8.15,72,9.48,72.4a10.77,10.77,0,0,0,2.33.26c.74,0,1.35.14,1.35.32,0,.71-1.64,3.52-2.06,3.53C10.85,76.51,10.65,76.38,10.65,76.21Zm-3.58-1.3a.54.54,0,1,1,.53.53A.54.54,0,0,1,7.07,74.91Zm53.73-.52a3.75,3.75,0,0,0-.9-1.31,3.39,3.39,0,0,1-.9-1.54,4.21,4.21,0,0,0-.71-1.65c-1.69-2.55-.26-2.66,2.16-.16,1.7,1.74,1.75,1.86,1.54,3.4-.13,1-.4,1.6-.7,1.6S60.8,74.57,60.8,74.39Zm-20.18-.26a1.43,1.43,0,0,1-.24-.85,4.17,4.17,0,0,0-1.25-1.82c-1.92-1.86-1.76-3,.76-5.48a13.73,13.73,0,0,1,4.7-3.09l2.67-1.11L49.94,63C52.37,64,54,65.35,54.43,66.54c.08.25.4.33.75.2s.6-.73.6-3.08a24.62,24.62,0,0,1,.52-4.93c.28-1.15.69-3,.91-4.12l.4-2,2.83-1.14a9.74,9.74,0,0,1,3.17-.92c.52.32.85,2.81.57,4.28s-.86,1.64-2.21.58C60.26,54,59.74,54.65,59.73,58a26.23,26.23,0,0,1-1.5,8.37,3.53,3.53,0,0,1-2,2.15c-1.79.74-2.62.41-5.1-2-2.92-2.87-5.29-3.46-6.76-1.7-.36.44-.25.69.64,1.44a13,13,0,0,0,3.14,1.68c2.74,1,3,1.26,3,3.09,0,1.32-.11,1.57-.71,1.57a1,1,0,0,1-.93-.86,4.89,4.89,0,0,0-1.21-1.81l-1-1-1,1.28c-3,3.7-3.45,4.13-4.42,4.13a2.36,2.36,0,0,1-1.21-.24Zm-37.06-3a1.36,1.36,0,0,0-.68-1.63,1.77,1.77,0,0,1-.83-1.61c0-1.25.67-1.39,1.62-.34a5.35,5.35,0,0,0,2,1.13c1.1.33,1.38.58,1.38,1.27,0,1.62-.62,2.25-2.21,2.25C3.44,72.22,3.41,72.19,3.56,71.15Zm7.69-.72c-1.36-.42-2-1-2-1.84s1.14-.91,1.77-.15a3.87,3.87,0,0,0,2.1.63c1.4.09,1.68.22,1.68.82s-.26.73-1.26.78a7.77,7.77,0,0,1-2.26-.24ZM64,70.25a.54.54,0,0,1,.54-.54.54.54,0,0,1,.54.54.55.55,0,0,1-.54.54A.54.54,0,0,1,64,70.25Zm1.27-.88c-.32-.51.08-1.09.75-1.09.31,0,.49.25.43.6C66.33,69.6,65.61,69.9,65.29,69.37Zm-4.13-1.72c-.94-.46-1.29-.89-1.38-1.66l-.12-1,2.31.21,2.3.22L65.65,64c1.43-1.46,2.31-1.8,2.31-.88a11.43,11.43,0,0,1-1.52,2.84c-1.38,2.09-1.64,2.31-2.78,2.33a6.15,6.15,0,0,1-2.5-.6ZM4.47,66.37a2.36,2.36,0,0,1-1-2,3.87,3.87,0,0,0-.53-1.94,2.57,2.57,0,0,1-.53-1.16c0-.58,1.32-.63,1.51-.07.09.29.36.27.91-.08C6,60.35,6.33,61,6.59,64.27c.21,2.73.18,2.93-.46,2.92a3.57,3.57,0,0,1-1.66-.82Zm25.76-.12a1.42,1.42,0,0,1-.24-.84c0-.36-.76-1-1.88-1.61A22.71,22.71,0,0,1,25.28,62c-.83-.69-1.52-.81-5.66-1-5.55-.25-6-.45-7.36-3.35a5.93,5.93,0,0,1-.73-4.22c.35-3.25.7-3.56,3.6-3.25,1.66.18,2.45.43,2.6.82a10.7,10.7,0,0,1-.31,3.14c-.59,2.89-.35,4.28.82,4.65a23.06,23.06,0,0,0,4.37,0l3.63-.25,1.6,1.28a11.84,11.84,0,0,0,2.72,1.65,3.21,3.21,0,0,1,1.59,1.26c.26.48.68.88,1,.88s.47.48.47,1.44v1.43H32a4.49,4.49,0,0,1-1.79-.24ZM38,63.73a2.32,2.32,0,0,1-1.32-1.14,5.58,5.58,0,0,0-1.07-1.46c-.88-.72-.68-1.7.42-2.11.54-.19.79-.37.54-.38s-.38-.7-.22-2.66.1-2.88-.41-3.95-.55-1.52-.23-2.22c.43-1,.82-1.06,1.85-.51.62.33.71.19.92-1.43.24-1.83.37-2,1.37-1.58s.49,7.2-.83,9.89c-.36.73-.51,1.37-.35,1.43a3.58,3.58,0,0,1,.4,1.8c.19,3.41,1.94,1.48,3.15-3.47.83-3.37.86-3.42,1.91-3.42,1.43,0,4.19,1.82,6.16,4.07,1.29,1.47,1.68,1.73,1.94,1.31s.11-.89-.37-1.65a7.64,7.64,0,0,1,.07-6.6c.9-1.49,1.29-1.78,2.42-1.78.79,0,.84.09.65,1.51a19.13,19.13,0,0,0,.18,4.25c.46,3.29.16,5.67-.86,6.76s-4,.9-6-.56l-2-1.4c-.75-.52-1.51.07-3.5,2.71S40.23,64.16,38,63.73Zm22.92-.16a4.51,4.51,0,0,1-.44-2.26V59.5l2.51,0c1.54,0,2.5.13,2.5.36a10.72,10.72,0,0,1-1,2.17c-.8,1.46-1.17,1.81-2,1.9a2.27,2.27,0,0,1-1.53-.34ZM4.23,57.26a5.83,5.83,0,0,0-.41-2.09,3,3,0,0,1-.23-1.7c.3-.78,2.4-.82,2.4-.06a.54.54,0,0,1-.54.54c-.67,0-.67.37,0,1.66.85,1.63.71,2.64-.36,2.64-.75,0-.89-.16-.86-1Zm22.63.24a14.54,14.54,0,0,0-3.94-.93c-2.82-.25-3.32-.54-3.32-2,0-1.77.93-3.53,1.87-3.52a5.27,5.27,0,0,1,3.3,2c.48.66.52.65.94-.28.34-.74.35-1.45,0-3-.51-2.64-.27-3.5,1.42-5a17.61,17.61,0,0,0,2.67-3.57c1.08-2,1.27-2.57,1.09-3.7a5.07,5.07,0,0,1,.34-2.7c.54-1.29.53-1.42-.39-3.46-1.1-2.45-1-3.15.52-3.15,1,0,1.12.16,1.62,1.86a25.82,25.82,0,0,1,.55,6.61c0,4.59,0,4.78-.89,5.65-1,1-1.1,1.69-.36,3.79.67,1.89.68,2.87,0,2.87S31.43,50.7,31.11,55l-.22,3-1.26.07a7,7,0,0,1-2.77-.64Zm41.55-.86A2.15,2.15,0,0,1,68,55.4a.64.64,0,0,0-.72-.73c-.57,0-.71-.24-.71-1.24,0-1.7.68-3.06,1.53-3.06.64,0,.69.2.55,2.14s-.13,2.13.63,1.94c1-.25,1.35.3,1.05,1.66C70,57.27,69.17,57.51,68.41,56.64Zm-66.62-1a11.25,11.25,0,0,1-.58-3.31,31.14,31.14,0,0,0-.45-3.67c-.19-.68-.09-.81.67-.81,1.17,0,1.55.54,1.85,2.58a4.21,4.21,0,0,1-.34,2.82c-.43.81-.48,1.24-.2,1.52.54.55.48,1.32-.11,1.32a1.22,1.22,0,0,1-.84-.45Zm7.07-4.57c0-.74,1.58-1.76,2-1.31.13.13,0,.64-.18,1.13C10.21,52,8.86,52.14,8.86,51.08Zm36.82-1.25a8.22,8.22,0,0,0-2.23-.89c-.91,0-1.43-1.39-.89-2.4s.75-.89,2.26-.27c.65.26.67.13.47-2.56a37.38,37.38,0,0,0-.9-5.52c-.38-1.48-.79-3.1-.91-3.61-.19-.79-.37-.9-1.3-.77-1.92.28-1.71,2.76.36,4.5,1.49,1.25.36,5-1.87,6.3-1.35.76-2.08.3-2.08-1.33a48.83,48.83,0,0,0-.52-4.94,22.58,22.58,0,0,1-.26-5l.25-1.43,2.33-.29c2.16-.26,3.86-1,2.35-1-.48,0-.6-.2-.47-.72s0-.72-.85-.72c-.57,0-1,.17-1,.36s-.27.36-.6.36a2.26,2.26,0,0,0-1.24.58c-1.21,1.1-1.79.38-1.67-2.05l.11-2.2,1.71-.9A11.56,11.56,0,0,1,42,24.31c1.49-.17,1.56-.13,2,1A6.87,6.87,0,0,0,45,27.25a8.41,8.41,0,0,1,1.13,1.94c.43,1.1.41,1.26-.19,1.7s-.6.49-.07.49a.57.57,0,0,1,.61.53c0,.29.56,2.61,1.25,5.16,1.38,5.08,1.6,8.2.72,10.31a12.79,12.79,0,0,0-.54,1.42c0,.07.24.14.54.14.71,0,.69,1.29,0,1.57s-.9.3-2.73-.68ZM5.35,49.58c-.84-.84-.23-3.15.83-3.15.32,0,.53-.35.53-.9,0-.75.16-.89,1.07-.89,1.14,0,1.19.07.85,1.34a1,1,0,0,1-1.06.81c-.8,0-.84.09-.63,1.61S7.09,50,6.47,50A1.78,1.78,0,0,1,5.35,49.58Zm15-.64c0-.2.24-.36.54-.36s.53.16.53.36-.24.35-.53.35S20.32,49.13,20.32,48.94Zm36.09-.12c-1-.81-.73-1.22,1-1.48,2.45-.37,4.07-1.24,4.07-2.19a12.1,12.1,0,0,1,.22-1.88c.2-1,.14-1.07-.53-.9s-.76,0-.76-.56.2-.75,1.92-.75h1.92l.23,1.66c.38,2.75.29,3.28-.63,3.78A19.37,19.37,0,0,0,61.71,48c-1.52,1.22-4.27,1.64-5.3.82ZM9.66,46.73a1.8,1.8,0,0,1-.44-1.11c0-.57.24-.65,1.88-.55s1.89.21,2,.91-.06.81-.72.81a6.9,6.9,0,0,0-1.54.2,1.35,1.35,0,0,1-1.17-.26Zm5,0a1.48,1.48,0,0,1-.43-.91,3.07,3.07,0,0,0-.92-1.39,2.24,2.24,0,0,1-.8-1.85c.1-.84.33-1,2.26-1.32,2.39-.43,2.89-.66,3.36-1.55.29-.54,0-.61-2.27-.68-3.39-.1-4.5-.53-4.5-1.72,0-.92,0-.92,2.1-.69,1.8.2,2.13.15,2.34-.39A1.27,1.27,0,0,0,15.49,35,2.21,2.21,0,0,1,15,33.77c0-.88,2.36-.84,2.59,0,.1.38.78.82,1.65,1.09,3.09.92,3.28,3.17.62,7.17A25.46,25.46,0,0,0,18,45.21c-.62,1.73-2.29,2.5-3.29,1.5Zm5.39.2c-.25-.1-.45-.63-.45-1.18,0-1,.64-2,2.44-3.93a7.92,7.92,0,0,0,2-3.88c.13-.64.4-1.16.59-1.16a3.4,3.4,0,0,0,1.26-.91c.74-.74.83-1,.48-1.44a1.58,1.58,0,0,0-1-.52c-2.56,0-5.42-2-5.42-3.82,0-1.58,2.47-5.68,3.65-6.05.84-.27,2.27-1.21,4.86-3.21,1.74-1.34,1.85-1.52,1.86-3.06a4.18,4.18,0,0,0-1-3.05,5.64,5.64,0,0,1-1.07-2c0-.69,2.27-1.51,3.76-1.34L33,11.5l.22,4.66a63.46,63.46,0,0,0,.63,6.78,24.83,24.83,0,0,1,.4,2.75c0,1-1.3,1.18-2.52.31a4.65,4.65,0,0,0-2.29-.78c-1.29,0-2.71.61-2.71,1.16,0,.19-.33.35-.72.35s-.72.24-.72.89.18.9.9.9a2.85,2.85,0,0,1,2.46,2.23c.08.45.32,1.75.53,2.89.46,2.52.4,2.71-2.56,7.24-4,6.1-4.14,6.27-5.2,6.24A5.54,5.54,0,0,1,20.05,46.91Zm30.66-5.29c-.11-3.56-.23-4.23-.93-5.18a4.07,4.07,0,0,1-.8-1.77c0-.38-.34-2.65-.75-5.06-.49-2.89-.62-4.5-.39-4.79a5.4,5.4,0,0,0,.6-1.85c.42-2.52.52-2.69,1.59-2.69a3.25,3.25,0,0,1,2.89,3.09c0,1.12-.1,1.21-1.44,1.43s-1.48.4-1.75,1.35-.18,1.23.37,1.71.91.53,1.84.24l1.75-.54a2,2,0,0,1,1.3.2c.63.34.7.29.53-.34-.23-.88.78-1.74,2-1.76,1.46,0,2.21,2.33,2.13,6.6a16.92,16.92,0,0,0,.15,3.67,1.53,1.53,0,0,1,.23.89c0,1.12-1.59.8-2.8-.58-1.34-1.53-1.65-2.47-1.13-3.44.66-1.23.75-3.45.15-3.94-.43-.36-.52-.26-.54.6-.06,2-.85,3.48-2,3.79-.75.19-1.15.55-1.26,1.12s0,.81.66.67.86,0,1,.78c.11.52.29,1.38.41,1.92C54.8,38.89,55.68,40,56.38,40s.55,1.14-.56,2.82c-1.22,1.83-2.71,2.91-4,2.91h-.95l-.13-4.09Zm4.71,2.92c0-.95,2.09-2.41,3.43-2.41s1.6.6.37,1.76C58.14,44.9,55.42,45.37,55.42,44.54Zm-51.51-3c.08-.69.34-1,.9-1.09s.81-.4.89-1.08a1.14,1.14,0,0,1,.74-1.07c.49-.1.63.12.63,1s-.16,1.1-.72,1.1-.72.24-.72,1.07-.13,1.08-.92,1.08S3.81,42.35,3.91,41.5ZM10,41c-.6-.6-.57-2.8.05-2.8.78,0,1.73,1.31,1.6,2.21A.92.92,0,0,1,10,41Zm54.73-.11a4.26,4.26,0,0,0-1.52-.53c-1.2,0-.7-1.3.76-2,2.12-1,2.73-.69,2.73,1.23S66.22,41.74,64.74,40.88Zm-3.58-5.2a21.46,21.46,0,0,1-.29-4.74c.07-2.56,0-3.61-.52-4.57a8.9,8.9,0,0,0-2-3.07.66.66,0,0,1-.2-.89,3.59,3.59,0,0,0,.22-1.7c-.06-1,0-1.18.56-1.08a1.14,1.14,0,0,1,.76,1,3.73,3.73,0,0,0,1.25,1.85c1.06.89,1.19,1.25,1.74,4.84C63,29.46,63.46,32,63.71,33c.43,1.67.42,1.79-.33,2.28a1.74,1.74,0,0,0-.79,1.2c0,1.26-1,.71-1.43-.76ZM9.93,32.28c-.83-1,1-6.82,2.38-7.43a2.11,2.11,0,0,0,1-1.08c.22-.68,2.12-1.7,3.19-1.7s.56.9-1.83,3.59c-3.2,3.61-3.7,4.47-3.46,5.95.15.92.07,1.21-.34,1.21A1.52,1.52,0,0,1,9.93,32.28Zm54.68-.63c-.37-1.37-.26-2.42.27-2.42s.93.78.93,2.18-.89,1.43-1.2.24ZM12.44,31c0-.4.22-.72.49-.72s.58-.56.72-1.41.45-1.48.86-1.61a13.15,13.15,0,0,0,2.67-3c2.63-3.62,3.24-4.14,4.86-4.19a4.75,4.75,0,0,0,1.77-.3c.78-.48.49-1.59-.6-2.37A2.77,2.77,0,0,1,22,15.7c-.09-.78-.27-.95-.91-.86s-.81,0-.81-1.74V11.24l1.34.29a12.55,12.55,0,0,0,2.51.25c1,0,1.16.08,1.16.76a3.42,3.42,0,0,0,1.08,1.83A2.88,2.88,0,0,1,27.48,17c0,1.44-.17,1.77-1.77,3.34a7,7,0,0,1-2.33,1.74c-.3,0-.55.16-.55.35A5.36,5.36,0,0,1,21.75,24a4.25,4.25,0,0,0-1.07,1.88,9.3,9.3,0,0,1-1,2.57l-1,1.91-2.33-.11c-2.18-.1-2.34-.06-2.44.7-.15,1-1.5,1.12-1.5.09ZM6.77,28.34A5.63,5.63,0,0,1,7,26a3.31,3.31,0,0,1,1.08.87c.81.86.81.88.17,2.33C7.32,31.41,6.76,31.09,6.77,28.34ZM54.41,23c.1-1.35,0-1.62-.51-1.62s-.63-.28-.63-1.06c0-1-.08-1.05-1-.87a2.05,2.05,0,0,1-2-.75c-1-.91-1.12-.94-2.64-.55-2,.52-2.21.29-2.22-3.12V12.4h1.19a2.87,2.87,0,0,1,2.23,1.08,5.56,5.56,0,0,0,2.12,1.37c.88.22,1.11.49,1.2,1.39.12,1.23.76,1.64,2.06,1.32l.85-.22L54.16,16c-1-1.46-1.16-3.33-.35-4s1.31-.29,3,2.18,1.67,3.37-.2,3.37h-1l.82,1.22a3.62,3.62,0,0,1-.1,4.67c-1.39,1.64-2,1.46-1.88-.51ZM42,23.47a11.32,11.32,0,0,0-2.76-.67c-1.75,0-2.1-1.75-1.58-7.72a16,16,0,0,1,.67-4c1.28-1.6,4.42.82,5.63,4.35a15.92,15.92,0,0,1,.73,2.6c0,.92-1.54.47-2.74-.8-.94-1-1.2-1.14-1.21-.63A3.23,3.23,0,0,1,40,18.13c-1.13,1.45-.93,1.74,1,1.38A9.67,9.67,0,0,1,46.2,20c1.3.5,1.31,1.88,0,3.22-1.09,1.14-1.7,1.18-4.23.26Zm-30.56-.23c.18-.94,1.37-1,1.37-.12,0,.51-.23.74-.75.74S11.35,23.67,11.43,23.24Zm3.89-4.68c0-2.22,2.24-6.16,3.45-6.16.46,0,.52.27.33,1.5a5.68,5.68,0,0,1-.66,2c-.33.4-.28.61.26,1a2.58,2.58,0,0,0,1,.5c.16,0,.29.4.29.87,0,1-.51,1.22-2.95,1.24C15.39,19.54,15.31,19.49,15.32,18.56ZM59.72,17c0-.56.2-.71.8-.63,1.2.17,1.3,1.37.12,1.37C60,17.77,59.72,17.59,59.72,17ZM11.78,14.32a1.08,1.08,0,0,1,.79-.79c.47-.09.62.06.52.53a1.05,1.05,0,0,1-.78.78C11.84,14.94,11.69,14.79,11.78,14.32Zm2.45-.49c0-.4.24-.72.54-.72s.53.32.53.72-.23.72-.53.72S14.23,14.23,14.23,13.83Zm34.29-1.27c-1.68-1.14-1.76-2-.17-2s3.86.68,4.09,1.28c.29.76-.55,1.58-1.63,1.58a5.28,5.28,0,0,1-2.29-.91Zm-30.25-2A4.69,4.69,0,0,1,19,8.49a2.42,2.42,0,0,0,.56-1.38c0-1,1.32-1.88,2.95-1.88,1.08,0,1.35.14,1.35.67,0,1-1.76,2.6-2.66,2.48-.61-.08-.72.06-.63.86.14,1.23-.87,2.8-1.81,2.8C18.16,12,18.1,11.87,18.27,10.58Zm4.34-.11A5.6,5.6,0,0,1,23.53,8l1.1-2,3.85-.17c2.18-.1,3.89,0,4,.15a17.24,17.24,0,0,0,1.34,1.92,8,8,0,0,1,1.22,2c0,.22-1.18.27-3.15.13a13.3,13.3,0,0,0-5.16.36Q23,11.46,22.61,10.47ZM15.3,9.23A2.36,2.36,0,0,1,17,7.38c.53,0,.54.44,0,1.6s-1.74,1.24-1.74.25Zm30.94.3C43.94,9.19,43.6,9,43.6,7.91c0-2,3.43-2.22,5.79-.42a5.21,5.21,0,0,1,1.67,1.79c.1.5-.15.6-1.43.57C48.78,9.82,47.25,9.68,46.24,9.53Zm6.19-1.8C52.09,6,52.11,6,53.26,6s2.52,1.16,2.52,2c0,.26-.36.46-.8.44a5.89,5.89,0,0,0-1.57.21C52.78,8.84,52.62,8.69,52.43,7.73ZM37.16,7.67c0-1.11,1.73-3.48,2.74-3.73,1.39-.35,2.59.14,2.85,1.16s-.25,1.55-1.51,1.56a5.17,5.17,0,0,0-2.08.9c-1.62,1.1-2,1.12-2,.11ZM33.23,5.26c-.53-1-.48-1.1.52-1.1.72,0,.9.18.9.9C34.65,6.13,33.76,6.26,33.23,5.26ZM24.14,5c-.93-.93.74-3.35,2.31-3.35s1.63.81.49,2.31C26,5.15,24.76,5.62,24.14,5Zm4.06-.59c0-1,1.87-2.49,3-2.33,2,.28.39,3.15-1.78,3.15C28.39,5.23,28.2,5.11,28.2,4.41Zm14.39-.59A6,6,0,0,1,41.45,2c0-.7,2.1-.39,3.08.46.78.66.92,1,.73,1.79C44.92,5.65,43.92,5.48,42.59,3.82Zm3.16-.91c0-.3.32-.54.72-.54s.72.24.72.54-.32.53-.72.53S45.75,3.2,45.75,2.91Zm-7.16-.36a.54.54,0,1,1,.54.53A.54.54,0,0,1,38.59,2.55Z"/><path id="path1102-8" class="cls-3" d="M27.65,85.55a1,1,0,0,1,.36-.74c.2-.12.36.11.36.52s-.16.74-.36.74S27.65,85.83,27.65,85.55Zm13.26-1.7a2.22,2.22,0,0,0-.6-1.07c-.72-.8-.32-1.34.53-.72a5.57,5.57,0,0,0,1.25.66c.6.2.6.25,0,.88s-1.21.87-1.21.25Zm5.17-1.4c-.15-.24-.73-.3-1.54-.15l-1.3.24,1-1.08c1.5-1.57,2.9-2.07,4.05-1.45.83.44,1,.41,1.59-.35a3,3,0,0,0,.68-1.44,1.53,1.53,0,0,1,1.32-1.47c1.13,0,.17,2.92-1.16,3.53a5.44,5.44,0,0,0-1.64,1.47c-.83,1.12-2.51,1.51-3,.7Zm-21.29-3c-1.22-2-3.54-2.92-4.63-1.89-.4.37-.44.11-.26-1.52.23-2,.84-2.87,2.11-2.87a7.68,7.68,0,0,0,2.17-.67c2.81-1.26,2.93-1.26,3,.11a20.43,20.43,0,0,0,.52,3.26c.45,1.89.43,2.15-.21,3.34-.93,1.74-1.68,1.81-2.66.24Zm6.65-.66a1.86,1.86,0,0,1-.07-1.22c.4-.4.64.17.5,1.21l-.14,1Zm7.88-.45A1.79,1.79,0,0,1,39.1,76c.29-.44.47-.4,1.19.27a2.88,2.88,0,0,0,1.28.8,7.24,7.24,0,0,0,3.81-2.36l.63-1L46.5,75c.67,1.59.63,1.8-.35,1.8a10,10,0,0,0-2.95,1.07c-2.41,1.22-3.08,1.31-3.88.52Zm-24.56-3a.75.75,0,0,1,.36-.56c.19-.12.36,0,.36.34s-.17.56-.36.56A.35.35,0,0,1,14.76,75.34ZM54.53,74A5.6,5.6,0,0,1,55,72.2c.34-.34.85.28,1.11,1.33.17.72,0,1-.81,1.47l-1,.57Zm-12.91-1.5a4.38,4.38,0,0,0-1.25-2,5.57,5.57,0,0,1-1.25-1.64A9.7,9.7,0,0,1,41,66.75c1.62-1.6,1.9-1.75,2.11-1.17.28.75,2.32,2.57,2.89,2.57.2,0-.1.57-.66,1.26l-2,2.51C42.15,73.31,41.62,73.5,41.62,72.51ZM5.09,70.32c0-.49.17-.64.54-.5s.46.32.14.7c-.55.67-.68.63-.68-.2Zm23.65-.2c.25-.3.52-.48.61-.39.25.25-.25.93-.69.93-.23,0-.21-.2.08-.54ZM13.1,66.83c-.75-.14-.75-.17.23-1.25s1.07-1.07,2.06-.63c1.22.54,1.2,1.58,0,1.91a3.65,3.65,0,0,1-2.25,0Zm9.9-.57c0-.83.07-.87.89-.49s1.21,1,.57,1a3.39,3.39,0,0,0-.9.22C23.14,67.1,23,66.93,23,66.26Zm40.41.58a.69.69,0,0,1,.68,0c.12.12-.09.21-.47.19s-.5-.1-.21-.21Zm-1.73-.48c-.32-.21-.36-.35-.11-.35a.85.85,0,0,1,.65.35C62.5,66.81,62.37,66.81,61.68,66.36ZM5.1,64.42c-.46-1.19-.48-2,0-2s.9,2.48.61,2.78C5.55,65.3,5.3,65,5.1,64.42ZM57,63.52a47.3,47.3,0,0,1,1.71-9.31c.18-.64.79-1.1,2.22-1.67l2-.8.25.93c.33,1.19.05,1.61-.79,1.16a4.53,4.53,0,0,0-1.78-.36c-1.33,0-1.8.94-1.8,3.59s-.73,7-1.29,7.77C57.11,65.39,57.05,65.23,57,63.52Zm-25.72.7A7.47,7.47,0,0,0,29,62.57a15.18,15.18,0,0,1-2.64-1.64,5.62,5.62,0,0,0-1.79-1l-1-.31,1.14,0a4,4,0,0,1,2.6,1.2,9.14,9.14,0,0,0,2.27,1.47c.92.27,3.31,2.67,2.66,2.67-.24,0-.63-.32-.88-.71ZM9.77,63.81A3.67,3.67,0,0,0,9.06,62a2.43,2.43,0,0,1-.43-3.09c.46-1.08.43-1.25-.27-2a2.74,2.74,0,0,1-.77-1.43c0-.58.06-.58.89,0a2.1,2.1,0,0,1,.89,2.05,17.29,17.29,0,0,0,.6,3.51c.44,1.57.5,2.29.21,2.89-.38.78-.39.78-.41-.14Zm52.15-1.27a2,2,0,0,1-.24-1.07c0-.69.19-.84,1.09-.84h1.08l-.55,1.08C62.74,62.78,62.38,63,61.92,62.54ZM37.45,61.19c-.73-1.15-.73-1.22-.11-1.38s.69.06.77.95.28,1.16,1.37,1.35l1.25.22-1.25,0c-1,0-1.38-.16-2-1.17Zm13.19-1.65a12.68,12.68,0,0,1-2.38-1.61c-1.74-1.42-2.87-1.43-4.45,0l-.85.76.21-.89c.75-3.29,1-4.3,1.23-4.3.7,0,3.88,2.49,5.29,4.14,1.8,2.11,2.69,2.39,3.56,1.15.74-1.06.7-2-.16-3.42A4.94,4.94,0,0,1,53,50.5l.61-1.15.49,3.86c.45,3.59.44,4-.16,5.2-.7,1.43-1.71,1.78-3.28,1.13Zm-35.59-.36a7.22,7.22,0,0,1-1.53-2.3,5.09,5.09,0,0,1-.69-3.49c.33-2.12.62-2.39,2.39-2.17a9.17,9.17,0,0,1,1.63.3,11.12,11.12,0,0,1-.45,2.3c-.7,2.75-.71,3.35,0,4.68.51,1,.5,1.06-.09,1a3,3,0,0,1-1.24-.37Zm12.67-2.9a15,15,0,0,0-4-.92A7.52,7.52,0,0,1,21,54.84a3.16,3.16,0,0,1,.22-1.58L21.63,52l.95.62a8,8,0,0,1,1.61,1.45q1.56,2,2.78-.78a3.51,3.51,0,0,0,.34-3c-.71-2.58-.49-3.33,1.61-5.57l2-2.07v1.22a8.62,8.62,0,0,0,.41,2.39c.35,1,.32,1.22-.19,1.51a1.69,1.69,0,0,0-.6,1.47c0,3.63-.45,7.77-.82,7.74a10.79,10.79,0,0,1-2-.74Zm9.89-2.45a14.8,14.8,0,0,0-.48-3c-.26-.63-.23-.66.3-.23a1.38,1.38,0,0,0,1.19.27c.51-.2.55,0,.32,1.48a14.2,14.2,0,0,1-.7,2.78c-.43,1-.45,1-.63-1.25Zm8.3-5.58a4.15,4.15,0,0,0-1.51-.5c-1.27,0-.58-.55.72-.55h1.34l-.05-3.58c0-3.65-1.37-10-2.3-11.13-.33-.4-.32-.51.07-.51,1,0,1.33.67,2.59,5.59,1.48,5.75,1.56,6.79.66,9.34-.63,1.78-.67,1.81-1.52,1.34ZM15.46,45a6.79,6.79,0,0,0-1.1-1.79l-.72-.76,2-.25a6.74,6.74,0,0,0,2.94-1c.89-.7.86-.6-.34,1.14a9.28,9.28,0,0,0-1.3,2.35,1.44,1.44,0,0,1-.53.89c-.45.37-.6.27-.92-.58Zm5.58.6c-.12-.19.33-1,1-1.7,1.78-2,3.11-4,3.11-4.83a3.85,3.85,0,0,1,1.26-1.84A6.25,6.25,0,0,0,28,35L28.31,34l0,1c0,1-.59,2-5.62,9.6C21.81,46,21.41,46.21,21,45.6Zm42.08-1.53c0-.89.09-1,.36-.63.45.7.45,1.79,0,1.79C63.28,45.23,63.12,44.71,63.12,44.07ZM52,41.2a21.44,21.44,0,0,0-.31-4.05c-.3-1.06-.28-1.09.72-.95s1,.31,1,1.36A3.6,3.6,0,0,0,54.53,40l1.09,1.24-1.39,1.46a5.7,5.7,0,0,1-1.8,1.46C52.15,44.15,52,43.19,52,41.2ZM39.7,41c-.13-1.33-.34-3.75-.46-5.37-.22-2.87-.2-3,.56-3s.72.11.4.69C39.36,35,39.85,37,41.49,38.8a1.67,1.67,0,0,1,.5,2.11c-.34,1.17-1.3,2.53-1.81,2.53A6.67,6.67,0,0,1,39.7,41Zm-8.07-.09a11.19,11.19,0,0,0,.71-3.22l.22-2.33,0,2.54c0,2.19,0,2.64-.71,3.22l-.77.69ZM65.27,39.5c-.46-.3-.45-.35.09-.35.34,0,.62.15.62.35C66,39.93,65.94,39.93,65.27,39.5Zm-45.55-.69c-.18-1.21-1.18-1.76-2.13-1.17-.41.26-.82.4-.91.32a6.38,6.38,0,0,1,.81-2.35,3.73,3.73,0,0,1,1.37.3c1.68.55,2.18,1.48,1.5,2.77l-.51,1Zm31-3.65a7.9,7.9,0,0,1-.64-2.65,25.86,25.86,0,0,0-.44-2.79c-.15-.53,0-.6.69-.42a6,6,0,0,0,2.41-.19A3,3,0,0,1,54.54,29a2.38,2.38,0,0,1-.11,1.59,2,2,0,0,1-1.49,1.61c-.89.27-1.15.6-1.46,1.89s-.46,1.47-.77,1.08Zm7-.67a1.61,1.61,0,0,1,0-1.68c.58-1.29.5-4.24-.15-4.77S56.86,27,57.38,27c.78,0,1.44,2.17,1.43,4.73,0,3-.39,4.05-1.06,2.8ZM62,32.81c0-1.5.24-1.43.7.19.26.89.22,1.12-.19,1.12S62,33.71,62,32.81Zm-34.68.51a3.87,3.87,0,0,0-2-.82c-3.29-.55-4.56-1.88-3.65-3.83s2.09-3.46,2.82-3.7a24.11,24.11,0,0,0,5-3.38L31.59,20V17.61c0-1.83-.16-2.58-.71-3.28-.87-1.1-.9-1.55-.15-1.84,1.48-.57,1.58-.35,1.6,3.28a54.36,54.36,0,0,0,.46,6.4l.44,2.91-1.36-.71a5.35,5.35,0,0,0-5.41.46,3.52,3.52,0,0,1-1.24.7c-.77,0-1.23,1.08-1,2.34s.34,1.37,2,1.74c1.08.24,1.86,1.76,1.68,3.28C27.85,33.77,27.78,33.82,27.36,33.32ZM44,28.93c-.49-.75-.87-.89-2.28-.89a7.1,7.1,0,0,0-2.68.51c-1,.5-1,.49-1-.47,0-.81.28-1.13,1.52-1.74,2.72-1.32,3.09-1.34,3.52-.21a6.69,6.69,0,0,0,1,1.73c.77.85,1.21,2,.78,2C44.71,29.83,44.31,29.42,44,28.93ZM16.1,28.85l-1-.15,1.14-1.14a42.62,42.62,0,0,0,3-3.61c1.75-2.37,2.72-3.23,2.72-2.39a6,6,0,0,1-1.28,1.8,4.15,4.15,0,0,0-1.18,2.06c.13.87-1.38,3.7-1.93,3.64C17.29,29,16.64,28.94,16.1,28.85Zm44.46-5c-.44-.57-.43-.58.14-.14s.79.76.49.76A2.31,2.31,0,0,1,60.56,23.83Zm-10.7-1.15c0-1.43.46-1.6,1.46-.53.72.77.77,1,.32,1.24C50.57,24.07,49.86,23.79,49.86,22.68Zm-7-.43a11.71,11.71,0,0,0-2.78-.65c-1.66,0-1.09-.66.9-1s4.38-.08,5,.5c.2.21,0,.61-.48,1.05C44.69,22.86,44.62,22.86,42.88,22.25ZM56,21.11a1,1,0,0,0-.74-.85c-.72-.19-1-1.54-.37-1.54.48,0,1.53,2.1,1.31,2.62C56.09,21.58,56,21.47,56,21.11ZM24.79,17a5.78,5.78,0,0,1-1.43-2.37c-.13-.77-.41-1.1-1-1.19s-.81-.28-.81-.49.35-.28.81-.16A7.53,7.53,0,0,0,23.8,13c.35,0,.63.21.63.47A3.61,3.61,0,0,0,25.5,15c1.05,1,1.35,2.09.81,2.9C26.14,18.12,25.6,17.8,24.79,17Zm-7.88.26c0-.43,0-.71.1-.63l.58.78c.41.54.4.63-.1.63S16.91,17.71,16.91,17.23ZM39,14.92a11.07,11.07,0,0,1,.51-3.16c.42-.46,2.69,1.76,3.14,3.08.37,1-.07,1.47-.46.45-.32-.83-2.14-.53-2.32.39a4.22,4.22,0,0,1-.6,1.39c-.4.57-.44.24-.27-2.15Zm11.63,2c-.48-.76-1.12-.78-3.19-.13-.77.24-.81.16-.81-1.58a4,4,0,0,1,.22-1.83,8,8,0,0,1,1.62,1.25,4.85,4.85,0,0,0,2.1,1.26c.52,0,.72.24.72.89,0,1.09-.06,1.1-.66.14Zm5.61-.77a5.46,5.46,0,0,1-1.73-2.72c0-.52.73.32,1.9,2.19.69,1.09.65,1.2-.17.53ZM24.91,8.34l.77-1.43h3c2.44,0,3.09.12,3.48.63.79,1,.59,1.16-2,1.16A17.36,17.36,0,0,0,26,9.23l-1.82.53a12,12,0,0,1,.72-1.42ZM45.41,8c-.64-.25-.64-.28-.06-.51a2.44,2.44,0,0,1,2.56.29c.66.49.62.52-.55.51A7,7,0,0,1,45.41,8ZM21.21,6.76c0-.08.25-.24.55-.35s.46-.07.34.14S21.21,7.05,21.21,6.76ZM40.48,5c.33-.34.52-.34.86,0s.24.43-.43.43S40.14,5.37,40.48,5Z"/></g></g></g></svg>